<svg width="358" height="236" viewBox="0 0 358 236" fill="none" xmlns="http://www.w3.org/2000/svg">
<path d="M1.43647 3.32V2.324H3.69247V11H2.58847V3.32H1.43647ZM5.56822 6.572C5.56822 5.196 5.79222 4.124 6.24022 3.356C6.68822 2.58 7.47222 2.192 8.59222 2.192C9.70422 2.192 10.4842 2.58 10.9322 3.356C11.3802 4.124 11.6042 5.196 11.6042 6.572C11.6042 7.972 11.3802 9.06 10.9322 9.836C10.4842 10.612 9.70422 11 8.59222 11C7.47222 11 6.68822 10.612 6.24022 9.836C5.79222 9.06 5.56822 7.972 5.56822 6.572ZM10.5242 6.572C10.5242 5.876 10.4762 5.288 10.3802 4.808C10.2922 4.32 10.1042 3.928 9.81622 3.632C9.53622 3.336 9.12822 3.188 8.59222 3.188C8.04822 3.188 7.63222 3.336 7.34422 3.632C7.06422 3.928 6.87622 4.32 6.78022 4.808C6.69222 5.288 6.64822 5.876 6.64822 6.572C6.64822 7.292 6.69222 7.896 6.78022 8.384C6.87622 8.872 7.06422 9.264 7.34422 9.56C7.63222 9.856 8.04822 10.004 8.59222 10.004C9.12822 10.004 9.53622 9.856 9.81622 9.56C10.1042 9.264 10.2922 8.872 10.3802 8.384C10.4762 7.896 10.5242 7.292 10.5242 6.572ZM13.1034 6.572C13.1034 5.196 13.3274 4.124 13.7754 3.356C14.2234 2.58 15.0074 2.192 16.1274 2.192C17.2394 2.192 18.0194 2.58 18.4674 3.356C18.9154 4.124 19.1394 5.196 19.1394 6.572C19.1394 7.972 18.9154 9.06 18.4674 9.836C18.0194 10.612 17.2394 11 16.1274 11C15.0074 11 14.2234 10.612 13.7754 9.836C13.3274 9.06 13.1034 7.972 13.1034 6.572ZM18.0594 6.572C18.0594 5.876 18.0114 5.288 17.9154 4.808C17.8274 4.32 17.6394 3.928 17.3514 3.632C17.0714 3.336 16.6634 3.188 16.1274 3.188C15.5834 3.188 15.1674 3.336 14.8794 3.632C14.5994 3.928 14.4114 4.32 14.3154 4.808C14.2274 5.288 14.1834 5.876 14.1834 6.572C14.1834 7.292 14.2274 7.896 14.3154 8.384C14.4114 8.872 14.5994 9.264 14.8794 9.56C15.1674 9.856 15.5834 10.004 16.1274 10.004C16.6634 10.004 17.0714 9.856 17.3514 9.56C17.6394 9.264 17.8274 8.872 17.9154 8.384C18.0114 7.896 18.0594 7.292 18.0594 6.572ZM20.3985 4.28C20.3985 3.736 20.5625 3.304 20.8905 2.984C21.2185 2.656 21.6385 2.492 22.1505 2.492C22.6625 2.492 23.0825 2.656 23.4105 2.984C23.7385 3.304 23.9025 3.736 23.9025 4.28C23.9025 4.832 23.7385 5.272 23.4105 5.6C23.0825 5.92 22.6625 6.08 22.1505 6.08C21.6385 6.08 21.2185 5.92 20.8905 5.6C20.5625 5.272 20.3985 4.832 20.3985 4.28ZM27.4065 2.624L22.5465 11H21.4665L26.3265 2.624H27.4065ZM22.1505 3.164C21.8785 3.164 21.6625 3.26 21.5025 3.452C21.3505 3.636 21.2745 3.912 21.2745 4.28C21.2745 4.648 21.3505 4.928 21.5025 5.12C21.6625 5.312 21.8785 5.408 22.1505 5.408C22.4225 5.408 22.6385 5.312 22.7985 5.12C22.9585 4.92 23.0385 4.64 23.0385 4.28C23.0385 3.912 22.9585 3.636 22.7985 3.452C22.6385 3.26 22.4225 3.164 22.1505 3.164ZM24.9945 9.344C24.9945 8.792 25.1585 8.356 25.4865 8.036C25.8145 7.708 26.2345 7.544 26.7465 7.544C27.2585 7.544 27.6745 7.708 27.9945 8.036C28.3225 8.356 28.4865 8.792 28.4865 9.344C28.4865 9.888 28.3225 10.324 27.9945 10.652C27.6745 10.98 27.2585 11.144 26.7465 11.144C26.2345 11.144 25.8145 10.984 25.4865 10.664C25.1585 10.336 24.9945 9.896 24.9945 9.344ZM26.7345 8.228C26.4625 8.228 26.2465 8.324 26.0865 8.516C25.9265 8.7 25.8465 8.976 25.8465 9.344C25.8465 9.704 25.9265 9.98 26.0865 10.172C26.2465 10.356 26.4625 10.448 26.7345 10.448C27.0065 10.448 27.2225 10.356 27.3825 10.172C27.5425 9.98 27.6225 9.704 27.6225 9.344C27.6225 8.976 27.5425 8.7 27.3825 8.516C27.2225 8.324 27.0065 8.228 26.7345 8.228Z" fill="#8BC6FF"/>
<path d="M11.8926 50.176L8.55659 58H7.45259L10.8366 50.284H6.20459V49.348H11.8926V50.176ZM18.6354 50.272H14.4234V53.008C14.6074 52.752 14.8794 52.544 15.2394 52.384C15.5994 52.216 15.9874 52.132 16.4034 52.132C17.0674 52.132 17.6074 52.272 18.0234 52.552C18.4394 52.824 18.7354 53.18 18.9114 53.62C19.0954 54.052 19.1874 54.512 19.1874 55C19.1874 55.576 19.0794 56.092 18.8634 56.548C18.6474 57.004 18.3154 57.364 17.8674 57.628C17.4274 57.892 16.8794 58.024 16.2234 58.024C15.3834 58.024 14.7034 57.808 14.1834 57.376C13.6634 56.944 13.3474 56.368 13.2354 55.648H14.3034C14.4074 56.104 14.6274 56.46 14.9634 56.716C15.2994 56.972 15.7234 57.1 16.2354 57.1C16.8674 57.1 17.3434 56.912 17.6634 56.536C17.9834 56.152 18.1434 55.648 18.1434 55.024C18.1434 54.4 17.9834 53.92 17.6634 53.584C17.3434 53.24 16.8714 53.068 16.2474 53.068C15.8234 53.068 15.4514 53.172 15.1314 53.38C14.8194 53.58 14.5914 53.856 14.4474 54.208H13.4154V49.312H18.6354V50.272ZM20.3985 51.28C20.3985 50.736 20.5625 50.304 20.8905 49.984C21.2185 49.656 21.6385 49.492 22.1505 49.492C22.6625 49.492 23.0825 49.656 23.4105 49.984C23.7385 50.304 23.9025 50.736 23.9025 51.28C23.9025 51.832 23.7385 52.272 23.4105 52.6C23.0825 52.92 22.6625 53.08 22.1505 53.08C21.6385 53.08 21.2185 52.92 20.8905 52.6C20.5625 52.272 20.3985 51.832 20.3985 51.28ZM27.4065 49.624L22.5465 58H21.4665L26.3265 49.624H27.4065ZM22.1505 50.164C21.8785 50.164 21.6625 50.26 21.5025 50.452C21.3505 50.636 21.2745 50.912 21.2745 51.28C21.2745 51.648 21.3505 51.928 21.5025 52.12C21.6625 52.312 21.8785 52.408 22.1505 52.408C22.4225 52.408 22.6385 52.312 22.7985 52.12C22.9585 51.92 23.0385 51.64 23.0385 51.28C23.0385 50.912 22.9585 50.636 22.7985 50.452C22.6385 50.26 22.4225 50.164 22.1505 50.164ZM24.9945 56.344C24.9945 55.792 25.1585 55.356 25.4865 55.036C25.8145 54.708 26.2345 54.544 26.7465 54.544C27.2585 54.544 27.6745 54.708 27.9945 55.036C28.3225 55.356 28.4865 55.792 28.4865 56.344C28.4865 56.888 28.3225 57.324 27.9945 57.652C27.6745 57.98 27.2585 58.144 26.7465 58.144C26.2345 58.144 25.8145 57.984 25.4865 57.664C25.1585 57.336 24.9945 56.896 24.9945 56.344ZM26.7345 55.228C26.4625 55.228 26.2465 55.324 26.0865 55.516C25.9265 55.7 25.8465 55.976 25.8465 56.344C25.8465 56.704 25.9265 56.98 26.0865 57.172C26.2465 57.356 26.4625 57.448 26.7345 57.448C27.0065 57.448 27.2225 57.356 27.3825 57.172C27.5425 56.98 27.6225 56.704 27.6225 56.344C27.6225 55.976 27.5425 55.7 27.3825 55.516C27.2225 55.324 27.0065 55.228 26.7345 55.228Z" fill="#8BC6FF"/>
<path d="M11.1002 97.272H6.88822V100.008C7.07222 99.752 7.34422 99.544 7.70422 99.384C8.06422 99.216 8.45222 99.132 8.86822 99.132C9.53222 99.132 10.0722 99.272 10.4882 99.552C10.9042 99.824 11.2002 100.18 11.3762 100.62C11.5602 101.052 11.6522 101.512 11.6522 102C11.6522 102.576 11.5442 103.092 11.3282 103.548C11.1122 104.004 10.7802 104.364 10.3322 104.628C9.89222 104.892 9.34422 105.024 8.68822 105.024C7.84822 105.024 7.16822 104.808 6.64822 104.376C6.12822 103.944 5.81222 103.368 5.70022 102.648H6.76822C6.87222 103.104 7.09222 103.46 7.42822 103.716C7.76422 103.972 8.18822 104.1 8.70022 104.1C9.33222 104.1 9.80822 103.912 10.1282 103.536C10.4482 103.152 10.6082 102.648 10.6082 102.024C10.6082 101.4 10.4482 100.92 10.1282 100.584C9.80822 100.24 9.33622 100.068 8.71222 100.068C8.28822 100.068 7.91622 100.172 7.59622 100.38C7.28422 100.58 7.05622 100.856 6.91222 101.208H5.88022V96.312H11.1002V97.272ZM13.1034 100.572C13.1034 99.196 13.3274 98.124 13.7754 97.356C14.2234 96.58 15.0074 96.192 16.1274 96.192C17.2394 96.192 18.0194 96.58 18.4674 97.356C18.9154 98.124 19.1394 99.196 19.1394 100.572C19.1394 101.972 18.9154 103.06 18.4674 103.836C18.0194 104.612 17.2394 105 16.1274 105C15.0074 105 14.2234 104.612 13.7754 103.836C13.3274 103.06 13.1034 101.972 13.1034 100.572ZM18.0594 100.572C18.0594 99.876 18.0114 99.288 17.9154 98.808C17.8274 98.32 17.6394 97.928 17.3514 97.632C17.0714 97.336 16.6634 97.188 16.1274 97.188C15.5834 97.188 15.1674 97.336 14.8794 97.632C14.5994 97.928 14.4114 98.32 14.3154 98.808C14.2274 99.288 14.1834 99.876 14.1834 100.572C14.1834 101.292 14.2274 101.896 14.3154 102.384C14.4114 102.872 14.5994 103.264 14.8794 103.56C15.1674 103.856 15.5834 104.004 16.1274 104.004C16.6634 104.004 17.0714 103.856 17.3514 103.56C17.6394 103.264 17.8274 102.872 17.9154 102.384C18.0114 101.896 18.0594 101.292 18.0594 100.572ZM20.3985 98.28C20.3985 97.736 20.5625 97.304 20.8905 96.984C21.2185 96.656 21.6385 96.492 22.1505 96.492C22.6625 96.492 23.0825 96.656 23.4105 96.984C23.7385 97.304 23.9025 97.736 23.9025 98.28C23.9025 98.832 23.7385 99.272 23.4105 99.6C23.0825 99.92 22.6625 100.08 22.1505 100.08C21.6385 100.08 21.2185 99.92 20.8905 99.6C20.5625 99.272 20.3985 98.832 20.3985 98.28ZM27.4065 96.624L22.5465 105H21.4665L26.3265 96.624H27.4065ZM22.1505 97.164C21.8785 97.164 21.6625 97.26 21.5025 97.452C21.3505 97.636 21.2745 97.912 21.2745 98.28C21.2745 98.648 21.3505 98.928 21.5025 99.12C21.6625 99.312 21.8785 99.408 22.1505 99.408C22.4225 99.408 22.6385 99.312 22.7985 99.12C22.9585 98.92 23.0385 98.64 23.0385 98.28C23.0385 97.912 22.9585 97.636 22.7985 97.452C22.6385 97.26 22.4225 97.164 22.1505 97.164ZM24.9945 103.344C24.9945 102.792 25.1585 102.356 25.4865 102.036C25.8145 101.708 26.2345 101.544 26.7465 101.544C27.2585 101.544 27.6745 101.708 27.9945 102.036C28.3225 102.356 28.4865 102.792 28.4865 103.344C28.4865 103.888 28.3225 104.324 27.9945 104.652C27.6745 104.98 27.2585 105.144 26.7465 105.144C26.2345 105.144 25.8145 104.984 25.4865 104.664C25.1585 104.336 24.9945 103.896 24.9945 103.344ZM26.7345 102.228C26.4625 102.228 26.2465 102.324 26.0865 102.516C25.9265 102.7 25.8465 102.976 25.8465 103.344C25.8465 103.704 25.9265 103.98 26.0865 104.172C26.2465 104.356 26.4625 104.448 26.7345 104.448C27.0065 104.448 27.2225 104.356 27.3825 104.172C27.5425 103.98 27.6225 103.704 27.6225 103.344C27.6225 102.976 27.5425 102.7 27.3825 102.516C27.2225 102.324 27.0065 102.228 26.7345 102.228Z" fill="#8BC6FF"/>
<path d="M6.06903 151.124C7.08503 150.308 7.88103 149.64 8.45703 149.12C9.03303 148.592 9.51703 148.044 9.90903 147.476C10.309 146.9 10.509 146.336 10.509 145.784C10.509 145.264 10.381 144.856 10.125 144.56C9.87703 144.256 9.47303 144.104 8.91303 144.104C8.36903 144.104 7.94503 144.276 7.64103 144.62C7.34503 144.956 7.18503 145.408 7.16103 145.976H6.10503C6.13703 145.08 6.40903 144.388 6.92103 143.9C7.43303 143.412 8.09303 143.168 8.90103 143.168C9.72503 143.168 10.377 143.396 10.857 143.852C11.345 144.308 11.589 144.936 11.589 145.736C11.589 146.4 11.389 147.048 10.989 147.68C10.597 148.304 10.149 148.856 9.64503 149.336C9.14103 149.808 8.49703 150.36 7.71303 150.992H11.841V151.904H6.06903V151.124ZM18.6354 144.272H14.4234V147.008C14.6074 146.752 14.8794 146.544 15.2394 146.384C15.5994 146.216 15.9874 146.132 16.4034 146.132C17.0674 146.132 17.6074 146.272 18.0234 146.552C18.4394 146.824 18.7354 147.18 18.9114 147.62C19.0954 148.052 19.1874 148.512 19.1874 149C19.1874 149.576 19.0794 150.092 18.8634 150.548C18.6474 151.004 18.3154 151.364 17.8674 151.628C17.4274 151.892 16.8794 152.024 16.2234 152.024C15.3834 152.024 14.7034 151.808 14.1834 151.376C13.6634 150.944 13.3474 150.368 13.2354 149.648H14.3034C14.4074 150.104 14.6274 150.46 14.9634 150.716C15.2994 150.972 15.7234 151.1 16.2354 151.1C16.8674 151.1 17.3434 150.912 17.6634 150.536C17.9834 150.152 18.1434 149.648 18.1434 149.024C18.1434 148.4 17.9834 147.92 17.6634 147.584C17.3434 147.24 16.8714 147.068 16.2474 147.068C15.8234 147.068 15.4514 147.172 15.1314 147.38C14.8194 147.58 14.5914 147.856 14.4474 148.208H13.4154V143.312H18.6354V144.272ZM20.3985 145.28C20.3985 144.736 20.5625 144.304 20.8905 143.984C21.2185 143.656 21.6385 143.492 22.1505 143.492C22.6625 143.492 23.0825 143.656 23.4105 143.984C23.7385 144.304 23.9025 144.736 23.9025 145.28C23.9025 145.832 23.7385 146.272 23.4105 146.6C23.0825 146.92 22.6625 147.08 22.1505 147.08C21.6385 147.08 21.2185 146.92 20.8905 146.6C20.5625 146.272 20.3985 145.832 20.3985 145.28ZM27.4065 143.624L22.5465 152H21.4665L26.3265 143.624H27.4065ZM22.1505 144.164C21.8785 144.164 21.6625 144.26 21.5025 144.452C21.3505 144.636 21.2745 144.912 21.2745 145.28C21.2745 145.648 21.3505 145.928 21.5025 146.12C21.6625 146.312 21.8785 146.408 22.1505 146.408C22.4225 146.408 22.6385 146.312 22.7985 146.12C22.9585 145.92 23.0385 145.64 23.0385 145.28C23.0385 144.912 22.9585 144.636 22.7985 144.452C22.6385 144.26 22.4225 144.164 22.1505 144.164ZM24.9945 150.344C24.9945 149.792 25.1585 149.356 25.4865 149.036C25.8145 148.708 26.2345 148.544 26.7465 148.544C27.2585 148.544 27.6745 148.708 27.9945 149.036C28.3225 149.356 28.4865 149.792 28.4865 150.344C28.4865 150.888 28.3225 151.324 27.9945 151.652C27.6745 151.98 27.2585 152.144 26.7465 152.144C26.2345 152.144 25.8145 151.984 25.4865 151.664C25.1585 151.336 24.9945 150.896 24.9945 150.344ZM26.7345 149.228C26.4625 149.228 26.2465 149.324 26.0865 149.516C25.9265 149.7 25.8465 149.976 25.8465 150.344C25.8465 150.704 25.9265 150.98 26.0865 151.172C26.2465 151.356 26.4625 151.448 26.7345 151.448C27.0065 151.448 27.2225 151.356 27.3825 151.172C27.5425 150.98 27.6225 150.704 27.6225 150.344C27.6225 149.976 27.5425 149.7 27.3825 149.516C27.2225 149.324 27.0065 149.228 26.7345 149.228Z" fill="#8BC6FF"/>
<path d="M13.1034 194.572C13.1034 193.196 13.3274 192.124 13.7754 191.356C14.2234 190.58 15.0074 190.192 16.1274 190.192C17.2394 190.192 18.0194 190.58 18.4674 191.356C18.9154 192.124 19.1394 193.196 19.1394 194.572C19.1394 195.972 18.9154 197.06 18.4674 197.836C18.0194 198.612 17.2394 199 16.1274 199C15.0074 199 14.2234 198.612 13.7754 197.836C13.3274 197.06 13.1034 195.972 13.1034 194.572ZM18.0594 194.572C18.0594 193.876 18.0114 193.288 17.9154 192.808C17.8274 192.32 17.6394 191.928 17.3514 191.632C17.0714 191.336 16.6634 191.188 16.1274 191.188C15.5834 191.188 15.1674 191.336 14.8794 191.632C14.5994 191.928 14.4114 192.32 14.3154 192.808C14.2274 193.288 14.1834 193.876 14.1834 194.572C14.1834 195.292 14.2274 195.896 14.3154 196.384C14.4114 196.872 14.5994 197.264 14.8794 197.56C15.1674 197.856 15.5834 198.004 16.1274 198.004C16.6634 198.004 17.0714 197.856 17.3514 197.56C17.6394 197.264 17.8274 196.872 17.9154 196.384C18.0114 195.896 18.0594 195.292 18.0594 194.572ZM20.3985 192.28C20.3985 191.736 20.5625 191.304 20.8905 190.984C21.2185 190.656 21.6385 190.492 22.1505 190.492C22.6625 190.492 23.0825 190.656 23.4105 190.984C23.7385 191.304 23.9025 191.736 23.9025 192.28C23.9025 192.832 23.7385 193.272 23.4105 193.6C23.0825 193.92 22.6625 194.08 22.1505 194.08C21.6385 194.08 21.2185 193.92 20.8905 193.6C20.5625 193.272 20.3985 192.832 20.3985 192.28ZM27.4065 190.624L22.5465 199H21.4665L26.3265 190.624H27.4065ZM22.1505 191.164C21.8785 191.164 21.6625 191.26 21.5025 191.452C21.3505 191.636 21.2745 191.912 21.2745 192.28C21.2745 192.648 21.3505 192.928 21.5025 193.12C21.6625 193.312 21.8785 193.408 22.1505 193.408C22.4225 193.408 22.6385 193.312 22.7985 193.12C22.9585 192.92 23.0385 192.64 23.0385 192.28C23.0385 191.912 22.9585 191.636 22.7985 191.452C22.6385 191.26 22.4225 191.164 22.1505 191.164ZM24.9945 197.344C24.9945 196.792 25.1585 196.356 25.4865 196.036C25.8145 195.708 26.2345 195.544 26.7465 195.544C27.2585 195.544 27.6745 195.708 27.9945 196.036C28.3225 196.356 28.4865 196.792 28.4865 197.344C28.4865 197.888 28.3225 198.324 27.9945 198.652C27.6745 198.98 27.2585 199.144 26.7465 199.144C26.2345 199.144 25.8145 198.984 25.4865 198.664C25.1585 198.336 24.9945 197.896 24.9945 197.344ZM26.7345 196.228C26.4625 196.228 26.2465 196.324 26.0865 196.516C25.9265 196.7 25.8465 196.976 25.8465 197.344C25.8465 197.704 25.9265 197.98 26.0865 198.172C26.2465 198.356 26.4625 198.448 26.7345 198.448C27.0065 198.448 27.2225 198.356 27.3825 198.172C27.5425 197.98 27.6225 197.704 27.6225 197.344C27.6225 196.976 27.5425 196.7 27.3825 196.516C27.2225 196.324 27.0065 196.228 26.7345 196.228Z" fill="#8BC6FF"/>
<rect x="45" y="54" width="27" height="66" fill="#C6E3FF"/>
<rect x="45" y="120" width="27" height="80" fill="#0385FF"/>
<path d="M48.619 213.121C49.151 213.121 49.6107 213.221 49.998 213.422C50.39 213.618 50.6887 213.9 50.894 214.269C51.104 214.638 51.209 215.072 51.209 215.571C51.209 216.07 51.104 216.504 50.894 216.873C50.6887 217.237 50.39 217.517 49.998 217.713C49.6107 217.904 49.151 218 48.619 218H47.1V213.121H48.619ZM48.619 217.475C49.249 217.475 49.7297 217.309 50.061 216.978C50.3924 216.642 50.558 216.173 50.558 215.571C50.558 214.964 50.39 214.491 50.054 214.15C49.7227 213.809 49.2444 213.639 48.619 213.639H47.737V217.475H48.619ZM55.5493 215.935C55.5493 216.056 55.5423 216.185 55.5283 216.32H52.4623C52.4856 216.698 52.6139 216.994 52.8473 217.209C53.0853 217.419 53.3723 217.524 53.7083 217.524C53.9836 217.524 54.2123 217.461 54.3943 217.335C54.5809 217.204 54.7116 217.032 54.7863 216.817H55.4723C55.3696 217.186 55.1643 217.487 54.8563 217.72C54.5483 217.949 54.1656 218.063 53.7083 218.063C53.3443 218.063 53.0176 217.981 52.7283 217.818C52.4436 217.655 52.2196 217.424 52.0563 217.125C51.8929 216.822 51.8113 216.472 51.8113 216.075C51.8113 215.678 51.8906 215.331 52.0493 215.032C52.2079 214.733 52.4296 214.505 52.7143 214.346C53.0036 214.183 53.3349 214.101 53.7083 214.101C54.0723 214.101 54.3943 214.18 54.6743 214.339C54.9543 214.498 55.1689 214.717 55.3183 214.997C55.4723 215.272 55.5493 215.585 55.5493 215.935ZM54.8913 215.802C54.8913 215.559 54.8376 215.352 54.7303 215.179C54.6229 215.002 54.4759 214.869 54.2893 214.78C54.1073 214.687 53.9043 214.64 53.6803 214.64C53.3583 214.64 53.0829 214.743 52.8543 214.948C52.6303 215.153 52.5019 215.438 52.4693 215.802H54.8913ZM57.7481 218.063C57.4541 218.063 57.1904 218.014 56.9571 217.916C56.7237 217.813 56.5394 217.673 56.4041 217.496C56.2687 217.314 56.1941 217.106 56.1801 216.873H56.8381C56.8567 217.064 56.9454 217.221 57.1041 217.342C57.2674 217.463 57.4797 217.524 57.7411 217.524C57.9837 217.524 58.1751 217.47 58.3151 217.363C58.4551 217.256 58.5251 217.12 58.5251 216.957C58.5251 216.789 58.4504 216.665 58.3011 216.586C58.1517 216.502 57.9207 216.42 57.6081 216.341C57.3234 216.266 57.0901 216.192 56.9081 216.117C56.7307 216.038 56.5767 215.923 56.4461 215.774C56.3201 215.62 56.2571 215.419 56.2571 215.172C56.2571 214.976 56.3154 214.796 56.4321 214.633C56.5487 214.47 56.7144 214.341 56.9291 214.248C57.1437 214.15 57.3887 214.101 57.6641 214.101C58.0887 214.101 58.4317 214.208 58.6931 214.423C58.9544 214.638 59.0944 214.932 59.1131 215.305H58.4761C58.4621 215.104 58.3804 214.943 58.2311 214.822C58.0864 214.701 57.8904 214.64 57.6431 214.64C57.4144 214.64 57.2324 214.689 57.0971 214.787C56.9617 214.885 56.8941 215.013 56.8941 215.172C56.8941 215.298 56.9337 215.403 57.0131 215.487C57.0971 215.566 57.1997 215.632 57.3211 215.683C57.4471 215.73 57.6197 215.783 57.8391 215.844C58.1144 215.919 58.3384 215.993 58.5111 216.068C58.6837 216.138 58.8307 216.245 58.9521 216.39C59.0781 216.535 59.1434 216.724 59.1481 216.957C59.1481 217.167 59.0897 217.356 58.9731 217.524C58.8564 217.692 58.6907 217.825 58.4761 217.923C58.2661 218.016 58.0234 218.063 57.7481 218.063ZM59.8093 216.068C59.8093 215.676 59.8886 215.333 60.0473 215.039C60.206 214.74 60.423 214.509 60.6983 214.346C60.9783 214.183 61.2886 214.101 61.6293 214.101C61.9653 214.101 62.257 214.173 62.5043 214.318C62.7516 214.463 62.936 214.645 63.0573 214.864V214.164H63.7013V218H63.0573V217.286C62.9313 217.51 62.7423 217.697 62.4903 217.846C62.243 217.991 61.9536 218.063 61.6223 218.063C61.2816 218.063 60.9736 217.979 60.6983 217.811C60.423 217.643 60.206 217.407 60.0473 217.104C59.8886 216.801 59.8093 216.455 59.8093 216.068ZM63.0573 216.075C63.0573 215.786 62.999 215.534 62.8823 215.319C62.7656 215.104 62.607 214.941 62.4063 214.829C62.2103 214.712 61.9933 214.654 61.7553 214.654C61.5173 214.654 61.3003 214.71 61.1043 214.822C60.9083 214.934 60.752 215.097 60.6353 215.312C60.5186 215.527 60.4603 215.779 60.4603 216.068C60.4603 216.362 60.5186 216.619 60.6353 216.838C60.752 217.053 60.9083 217.218 61.1043 217.335C61.3003 217.447 61.5173 217.503 61.7553 217.503C61.9933 217.503 62.2103 217.447 62.4063 217.335C62.607 217.218 62.7656 217.053 62.8823 216.838C62.999 216.619 63.0573 216.364 63.0573 216.075ZM65.1068 213.541C64.9854 213.541 64.8828 213.499 64.7988 213.415C64.7148 213.331 64.6728 213.228 64.6728 213.107C64.6728 212.986 64.7148 212.883 64.7988 212.799C64.8828 212.715 64.9854 212.673 65.1068 212.673C65.2234 212.673 65.3214 212.715 65.4008 212.799C65.4848 212.883 65.5268 212.986 65.5268 213.107C65.5268 213.228 65.4848 213.331 65.4008 213.415C65.3214 213.499 65.2234 213.541 65.1068 213.541ZM65.4148 214.164V218H64.7778V214.164H65.4148ZM68.3694 214.094C68.8361 214.094 69.2141 214.236 69.5034 214.521C69.7928 214.801 69.9374 215.207 69.9374 215.739V218H69.3074V215.83C69.3074 215.447 69.2118 215.156 69.0204 214.955C68.8291 214.75 68.5678 214.647 68.2364 214.647C67.9004 214.647 67.6321 214.752 67.4314 214.962C67.2354 215.172 67.1374 215.478 67.1374 215.879V218H66.5004V214.164H67.1374V214.71C67.2634 214.514 67.4338 214.362 67.6484 214.255C67.8678 214.148 68.1081 214.094 68.3694 214.094ZM57.2208 221.121L55.8068 226H55.0928L53.9588 222.073L52.7828 226L52.0758 226.007L50.7108 221.121H51.3898L52.4538 225.258L53.6298 221.121H54.3438L55.4638 225.244L56.5348 221.121H57.2208ZM61.4179 223.935C61.4179 224.056 61.4109 224.185 61.3969 224.32H58.3309C58.3542 224.698 58.4826 224.994 58.7159 225.209C58.9539 225.419 59.2409 225.524 59.5769 225.524C59.8522 225.524 60.0809 225.461 60.2629 225.335C60.4496 225.204 60.5802 225.032 60.6549 224.817H61.3409C61.2382 225.186 61.0329 225.487 60.7249 225.72C60.4169 225.949 60.0342 226.063 59.5769 226.063C59.2129 226.063 58.8862 225.981 58.5969 225.818C58.3122 225.655 58.0882 225.424 57.9249 225.125C57.7616 224.822 57.6799 224.472 57.6799 224.075C57.6799 223.678 57.7592 223.331 57.9179 223.032C58.0766 222.733 58.2982 222.505 58.5829 222.346C58.8722 222.183 59.2036 222.101 59.5769 222.101C59.9409 222.101 60.2629 222.18 60.5429 222.339C60.8229 222.498 61.0376 222.717 61.1869 222.997C61.3409 223.272 61.4179 223.585 61.4179 223.935ZM60.7599 223.802C60.7599 223.559 60.7062 223.352 60.5989 223.179C60.4916 223.002 60.3446 222.869 60.1579 222.78C59.9759 222.687 59.7729 222.64 59.5489 222.64C59.2269 222.64 58.9516 222.743 58.7229 222.948C58.4989 223.153 58.3706 223.438 58.3379 223.802H60.7599ZM62.8957 222.878C63.0264 222.649 63.2177 222.463 63.4697 222.318C63.7217 222.173 64.0087 222.101 64.3307 222.101C64.6761 222.101 64.9864 222.183 65.2617 222.346C65.5371 222.509 65.7541 222.74 65.9127 223.039C66.0714 223.333 66.1507 223.676 66.1507 224.068C66.1507 224.455 66.0714 224.801 65.9127 225.104C65.7541 225.407 65.5347 225.643 65.2547 225.811C64.9794 225.979 64.6714 226.063 64.3307 226.063C63.9994 226.063 63.7077 225.991 63.4557 225.846C63.2084 225.701 63.0217 225.517 62.8957 225.293V226H62.2587V220.82H62.8957V222.878ZM65.4997 224.068C65.4997 223.779 65.4414 223.527 65.3247 223.312C65.2081 223.097 65.0494 222.934 64.8487 222.822C64.6527 222.71 64.4357 222.654 64.1977 222.654C63.9644 222.654 63.7474 222.712 63.5467 222.829C63.3507 222.941 63.1921 223.107 63.0707 223.326C62.9541 223.541 62.8957 223.79 62.8957 224.075C62.8957 224.364 62.9541 224.619 63.0707 224.838C63.1921 225.053 63.3507 225.218 63.5467 225.335C63.7474 225.447 63.9644 225.503 64.1977 225.503C64.4357 225.503 64.6527 225.447 64.8487 225.335C65.0494 225.218 65.2081 225.053 65.3247 224.838C65.4414 224.619 65.4997 224.362 65.4997 224.068Z" fill="#8BC6FF"/>
<rect x="112" y="40" width="27" height="100" fill="#C6E3FF"/>
<rect x="112" y="140" width="27" height="60" fill="#0385FF"/>
<path d="M103.707 214.549C103.707 214.955 103.567 215.293 103.287 215.564C103.012 215.83 102.59 215.963 102.02 215.963H101.082V218H100.445V213.121H102.02C102.571 213.121 102.989 213.254 103.273 213.52C103.563 213.786 103.707 214.129 103.707 214.549ZM102.02 215.438C102.375 215.438 102.636 215.361 102.804 215.207C102.972 215.053 103.056 214.834 103.056 214.549C103.056 213.947 102.711 213.646 102.02 213.646H101.082V215.438H102.02ZM107.999 215.935C107.999 216.056 107.992 216.185 107.978 216.32H104.912C104.935 216.698 105.064 216.994 105.297 217.209C105.535 217.419 105.822 217.524 106.158 217.524C106.433 217.524 106.662 217.461 106.844 217.335C107.031 217.204 107.161 217.032 107.236 216.817H107.922C107.819 217.186 107.614 217.487 107.306 217.72C106.998 217.949 106.615 218.063 106.158 218.063C105.794 218.063 105.467 217.981 105.178 217.818C104.893 217.655 104.669 217.424 104.506 217.125C104.343 216.822 104.261 216.472 104.261 216.075C104.261 215.678 104.34 215.331 104.499 215.032C104.658 214.733 104.879 214.505 105.164 214.346C105.453 214.183 105.785 214.101 106.158 214.101C106.522 214.101 106.844 214.18 107.124 214.339C107.404 214.498 107.619 214.717 107.768 214.997C107.922 215.272 107.999 215.585 107.999 215.935ZM107.341 215.802C107.341 215.559 107.287 215.352 107.18 215.179C107.073 215.002 106.926 214.869 106.739 214.78C106.557 214.687 106.354 214.64 106.13 214.64C105.808 214.64 105.533 214.743 105.304 214.948C105.08 215.153 104.952 215.438 104.919 215.802H107.341ZM113.453 214.094C113.751 214.094 114.017 214.157 114.251 214.283C114.484 214.404 114.668 214.589 114.804 214.836C114.939 215.083 115.007 215.384 115.007 215.739V218H114.377V215.83C114.377 215.447 114.281 215.156 114.09 214.955C113.903 214.75 113.649 214.647 113.327 214.647C112.995 214.647 112.732 214.754 112.536 214.969C112.34 215.179 112.242 215.485 112.242 215.886V218H111.612V215.83C111.612 215.447 111.516 215.156 111.325 214.955C111.138 214.75 110.884 214.647 110.562 214.647C110.23 214.647 109.967 214.754 109.771 214.969C109.575 215.179 109.477 215.485 109.477 215.886V218H108.84V214.164H109.477V214.717C109.603 214.516 109.771 214.362 109.981 214.255C110.195 214.148 110.431 214.094 110.688 214.094C111.01 214.094 111.294 214.166 111.542 214.311C111.789 214.456 111.973 214.668 112.095 214.948C112.202 214.677 112.379 214.467 112.627 214.318C112.874 214.169 113.149 214.094 113.453 214.094ZM116.689 214.787C116.801 214.568 116.959 214.397 117.165 214.276C117.375 214.155 117.629 214.094 117.928 214.094V214.752H117.76C117.046 214.752 116.689 215.139 116.689 215.914V218H116.052V214.164H116.689V214.787ZM120.336 218.063C119.977 218.063 119.65 217.981 119.356 217.818C119.067 217.655 118.838 217.424 118.67 217.125C118.507 216.822 118.425 216.472 118.425 216.075C118.425 215.683 118.509 215.338 118.677 215.039C118.85 214.736 119.083 214.505 119.377 214.346C119.671 214.183 120 214.101 120.364 214.101C120.728 214.101 121.057 214.183 121.351 214.346C121.645 214.505 121.876 214.733 122.044 215.032C122.217 215.331 122.303 215.678 122.303 216.075C122.303 216.472 122.214 216.822 122.037 217.125C121.864 217.424 121.629 217.655 121.33 217.818C121.031 217.981 120.7 218.063 120.336 218.063ZM120.336 217.503C120.565 217.503 120.779 217.449 120.98 217.342C121.181 217.235 121.342 217.074 121.463 216.859C121.589 216.644 121.652 216.383 121.652 216.075C121.652 215.767 121.591 215.506 121.47 215.291C121.349 215.076 121.19 214.918 120.994 214.815C120.798 214.708 120.586 214.654 120.357 214.654C120.124 214.654 119.909 214.708 119.713 214.815C119.522 214.918 119.368 215.076 119.251 215.291C119.134 215.506 119.076 215.767 119.076 216.075C119.076 216.388 119.132 216.651 119.244 216.866C119.361 217.081 119.515 217.242 119.706 217.349C119.897 217.452 120.107 217.503 120.336 217.503ZM124.723 214.101C125.054 214.101 125.343 214.173 125.591 214.318C125.843 214.463 126.029 214.645 126.151 214.864V214.164H126.795V218.084C126.795 218.434 126.72 218.744 126.571 219.015C126.421 219.29 126.207 219.505 125.927 219.659C125.651 219.813 125.329 219.89 124.961 219.89C124.457 219.89 124.037 219.771 123.701 219.533C123.365 219.295 123.166 218.971 123.106 218.56H123.736C123.806 218.793 123.95 218.98 124.17 219.12C124.389 219.265 124.653 219.337 124.961 219.337C125.311 219.337 125.595 219.227 125.815 219.008C126.039 218.789 126.151 218.481 126.151 218.084V217.279C126.025 217.503 125.838 217.69 125.591 217.839C125.343 217.988 125.054 218.063 124.723 218.063C124.382 218.063 124.072 217.979 123.792 217.811C123.516 217.643 123.299 217.407 123.141 217.104C122.982 216.801 122.903 216.455 122.903 216.068C122.903 215.676 122.982 215.333 123.141 215.039C123.299 214.74 123.516 214.509 123.792 214.346C124.072 214.183 124.382 214.101 124.723 214.101ZM126.151 216.075C126.151 215.786 126.092 215.534 125.976 215.319C125.859 215.104 125.7 214.941 125.5 214.829C125.304 214.712 125.087 214.654 124.849 214.654C124.611 214.654 124.394 214.71 124.198 214.822C124.002 214.934 123.845 215.097 123.729 215.312C123.612 215.527 123.554 215.779 123.554 216.068C123.554 216.362 123.612 216.619 123.729 216.838C123.845 217.053 124.002 217.218 124.198 217.335C124.394 217.447 124.611 217.503 124.849 217.503C125.087 217.503 125.304 217.447 125.5 217.335C125.7 217.218 125.859 217.053 125.976 216.838C126.092 216.619 126.151 216.364 126.151 216.075ZM128.508 214.787C128.62 214.568 128.779 214.397 128.984 214.276C129.194 214.155 129.448 214.094 129.747 214.094V214.752H129.579C128.865 214.752 128.508 215.139 128.508 215.914V218H127.871V214.164H128.508V214.787ZM130.244 216.068C130.244 215.676 130.324 215.333 130.482 215.039C130.641 214.74 130.858 214.509 131.133 214.346C131.413 214.183 131.724 214.101 132.064 214.101C132.4 214.101 132.692 214.173 132.939 214.318C133.187 214.463 133.371 214.645 133.492 214.864V214.164H134.136V218H133.492V217.286C133.366 217.51 133.177 217.697 132.925 217.846C132.678 217.991 132.389 218.063 132.057 218.063C131.717 218.063 131.409 217.979 131.133 217.811C130.858 217.643 130.641 217.407 130.482 217.104C130.324 216.801 130.244 216.455 130.244 216.068ZM133.492 216.075C133.492 215.786 133.434 215.534 133.317 215.319C133.201 215.104 133.042 214.941 132.841 214.829C132.645 214.712 132.428 214.654 132.19 214.654C131.952 214.654 131.735 214.71 131.539 214.822C131.343 214.934 131.187 215.097 131.07 215.312C130.954 215.527 130.895 215.779 130.895 216.068C130.895 216.362 130.954 216.619 131.07 216.838C131.187 217.053 131.343 217.218 131.539 217.335C131.735 217.447 131.952 217.503 132.19 217.503C132.428 217.503 132.645 217.447 132.841 217.335C133.042 217.218 133.201 217.053 133.317 216.838C133.434 216.619 133.492 216.364 133.492 216.075ZM139.826 214.094C140.124 214.094 140.39 214.157 140.624 214.283C140.857 214.404 141.041 214.589 141.177 214.836C141.312 215.083 141.38 215.384 141.38 215.739V218H140.75V215.83C140.75 215.447 140.654 215.156 140.463 214.955C140.276 214.75 140.022 214.647 139.7 214.647C139.368 214.647 139.105 214.754 138.909 214.969C138.713 215.179 138.615 215.485 138.615 215.886V218H137.985V215.83C137.985 215.447 137.889 215.156 137.698 214.955C137.511 214.75 137.257 214.647 136.935 214.647C136.603 214.647 136.34 214.754 136.144 214.969C135.948 215.179 135.85 215.485 135.85 215.886V218H135.213V214.164H135.85V214.717C135.976 214.516 136.144 214.362 136.354 214.255C136.568 214.148 136.804 214.094 137.061 214.094C137.383 214.094 137.667 214.166 137.915 214.311C138.162 214.456 138.346 214.668 138.468 214.948C138.575 214.677 138.752 214.467 139 214.318C139.247 214.169 139.522 214.094 139.826 214.094ZM142.187 216.068C142.187 215.676 142.266 215.333 142.425 215.039C142.583 214.74 142.8 214.509 143.076 214.346C143.356 214.183 143.666 214.101 144.007 214.101C144.343 214.101 144.634 214.173 144.882 214.318C145.129 214.463 145.313 214.645 145.435 214.864V214.164H146.079V218H145.435V217.286C145.309 217.51 145.12 217.697 144.868 217.846C144.62 217.991 144.331 218.063 144 218.063C143.659 218.063 143.351 217.979 143.076 217.811C142.8 217.643 142.583 217.407 142.425 217.104C142.266 216.801 142.187 216.455 142.187 216.068ZM145.435 216.075C145.435 215.786 145.376 215.534 145.26 215.319C145.143 215.104 144.984 214.941 144.784 214.829C144.588 214.712 144.371 214.654 144.133 214.654C143.895 214.654 143.678 214.71 143.482 214.822C143.286 214.934 143.129 215.097 143.013 215.312C142.896 215.527 142.838 215.779 142.838 216.068C142.838 216.362 142.896 216.619 143.013 216.838C143.129 217.053 143.286 217.218 143.482 217.335C143.678 217.447 143.895 217.503 144.133 217.503C144.371 217.503 144.588 217.447 144.784 217.335C144.984 217.218 145.143 217.053 145.26 216.838C145.376 216.619 145.435 216.364 145.435 216.075ZM149.024 214.094C149.491 214.094 149.869 214.236 150.158 214.521C150.448 214.801 150.592 215.207 150.592 215.739V218H149.962V215.83C149.962 215.447 149.867 215.156 149.675 214.955C149.484 214.75 149.223 214.647 148.891 214.647C148.555 214.647 148.287 214.752 148.086 214.962C147.89 215.172 147.792 215.478 147.792 215.879V218H147.155V214.164H147.792V214.71C147.918 214.514 148.089 214.362 148.303 214.255C148.523 214.148 148.763 214.094 149.024 214.094ZM112.9 221.121V224.726C112.9 225.127 112.776 225.449 112.529 225.692C112.281 225.93 111.955 226.049 111.549 226.049C111.138 226.049 110.809 225.928 110.562 225.685C110.314 225.438 110.191 225.102 110.191 224.677H110.828C110.832 224.915 110.893 225.109 111.01 225.258C111.131 225.407 111.311 225.482 111.549 225.482C111.787 225.482 111.964 225.412 112.081 225.272C112.197 225.127 112.256 224.945 112.256 224.726V221.121H112.9ZM113.917 224.068C113.917 223.676 113.996 223.333 114.155 223.039C114.313 222.74 114.53 222.509 114.806 222.346C115.086 222.183 115.396 222.101 115.737 222.101C116.073 222.101 116.364 222.173 116.612 222.318C116.859 222.463 117.043 222.645 117.165 222.864V222.164H117.809V226H117.165V225.286C117.039 225.51 116.85 225.697 116.598 225.846C116.35 225.991 116.061 226.063 115.73 226.063C115.389 226.063 115.081 225.979 114.806 225.811C114.53 225.643 114.313 225.407 114.155 225.104C113.996 224.801 113.917 224.455 113.917 224.068ZM117.165 224.075C117.165 223.786 117.106 223.534 116.99 223.319C116.873 223.104 116.714 222.941 116.514 222.829C116.318 222.712 116.101 222.654 115.863 222.654C115.625 222.654 115.408 222.71 115.212 222.822C115.016 222.934 114.859 223.097 114.743 223.312C114.626 223.527 114.568 223.779 114.568 224.068C114.568 224.362 114.626 224.619 114.743 224.838C114.859 225.053 115.016 225.218 115.212 225.335C115.408 225.447 115.625 225.503 115.863 225.503C116.101 225.503 116.318 225.447 116.514 225.335C116.714 225.218 116.873 225.053 116.99 224.838C117.106 224.619 117.165 224.364 117.165 224.075ZM119.522 222.787C119.634 222.568 119.793 222.397 119.998 222.276C120.208 222.155 120.463 222.094 120.761 222.094V222.752H120.593C119.879 222.752 119.522 223.139 119.522 223.914V226H118.885V222.164H119.522V222.787ZM121.826 221.541C121.704 221.541 121.602 221.499 121.518 221.415C121.434 221.331 121.392 221.228 121.392 221.107C121.392 220.986 121.434 220.883 121.518 220.799C121.602 220.715 121.704 220.673 121.826 220.673C121.942 220.673 122.04 220.715 122.12 220.799C122.204 220.883 122.246 220.986 122.246 221.107C122.246 221.228 122.204 221.331 122.12 221.415C122.04 221.499 121.942 221.541 121.826 221.541ZM122.134 222.164V226H121.497V222.164H122.134ZM125.088 222.094C125.555 222.094 125.933 222.236 126.222 222.521C126.512 222.801 126.656 223.207 126.656 223.739V226H126.026V223.83C126.026 223.447 125.931 223.156 125.739 222.955C125.548 222.75 125.287 222.647 124.955 222.647C124.619 222.647 124.351 222.752 124.15 222.962C123.954 223.172 123.856 223.478 123.856 223.879V226H123.219V222.164H123.856V222.71C123.982 222.514 124.153 222.362 124.367 222.255C124.587 222.148 124.827 222.094 125.088 222.094ZM129.279 222.101C129.61 222.101 129.899 222.173 130.147 222.318C130.399 222.463 130.585 222.645 130.707 222.864V222.164H131.351V226.084C131.351 226.434 131.276 226.744 131.127 227.015C130.977 227.29 130.763 227.505 130.483 227.659C130.207 227.813 129.885 227.89 129.517 227.89C129.013 227.89 128.593 227.771 128.257 227.533C127.921 227.295 127.722 226.971 127.662 226.56H128.292C128.362 226.793 128.506 226.98 128.726 227.12C128.945 227.265 129.209 227.337 129.517 227.337C129.867 227.337 130.151 227.227 130.371 227.008C130.595 226.789 130.707 226.481 130.707 226.084V225.279C130.581 225.503 130.394 225.69 130.147 225.839C129.899 225.988 129.61 226.063 129.279 226.063C128.938 226.063 128.628 225.979 128.348 225.811C128.072 225.643 127.855 225.407 127.697 225.104C127.538 224.801 127.459 224.455 127.459 224.068C127.459 223.676 127.538 223.333 127.697 223.039C127.855 222.74 128.072 222.509 128.348 222.346C128.628 222.183 128.938 222.101 129.279 222.101ZM130.707 224.075C130.707 223.786 130.648 223.534 130.532 223.319C130.415 223.104 130.256 222.941 130.056 222.829C129.86 222.712 129.643 222.654 129.405 222.654C129.167 222.654 128.95 222.71 128.754 222.822C128.558 222.934 128.401 223.097 128.285 223.312C128.168 223.527 128.11 223.779 128.11 224.068C128.11 224.362 128.168 224.619 128.285 224.838C128.401 225.053 128.558 225.218 128.754 225.335C128.95 225.447 129.167 225.503 129.405 225.503C129.643 225.503 129.86 225.447 130.056 225.335C130.256 225.218 130.415 225.053 130.532 224.838C130.648 224.619 130.707 224.364 130.707 224.075ZM132.189 224.068C132.189 223.676 132.269 223.333 132.427 223.039C132.586 222.74 132.803 222.509 133.078 222.346C133.358 222.183 133.669 222.101 134.009 222.101C134.345 222.101 134.637 222.173 134.884 222.318C135.132 222.463 135.316 222.645 135.437 222.864V222.164H136.081V226H135.437V225.286C135.311 225.51 135.122 225.697 134.87 225.846C134.623 225.991 134.334 226.063 134.002 226.063C133.662 226.063 133.354 225.979 133.078 225.811C132.803 225.643 132.586 225.407 132.427 225.104C132.269 224.801 132.189 224.455 132.189 224.068ZM135.437 224.075C135.437 223.786 135.379 223.534 135.262 223.319C135.146 223.104 134.987 222.941 134.786 222.829C134.59 222.712 134.373 222.654 134.135 222.654C133.897 222.654 133.68 222.71 133.484 222.822C133.288 222.934 133.132 223.097 133.015 223.312C132.899 223.527 132.84 223.779 132.84 224.068C132.84 224.362 132.899 224.619 133.015 224.838C133.132 225.053 133.288 225.218 133.484 225.335C133.68 225.447 133.897 225.503 134.135 225.503C134.373 225.503 134.59 225.447 134.786 225.335C134.987 225.218 135.146 225.053 135.262 224.838C135.379 224.619 135.437 224.364 135.437 224.075ZM139.027 222.094C139.493 222.094 139.871 222.236 140.161 222.521C140.45 222.801 140.595 223.207 140.595 223.739V226H139.965V223.83C139.965 223.447 139.869 223.156 139.678 222.955C139.486 222.75 139.225 222.647 138.894 222.647C138.558 222.647 138.289 222.752 138.089 222.962C137.893 223.172 137.795 223.478 137.795 223.879V226H137.158V222.164H137.795V222.71C137.921 222.514 138.091 222.362 138.306 222.255C138.525 222.148 138.765 222.094 139.027 222.094Z" fill="#8BC6FF"/>
<rect x="179" y="88" width="28" height="68" fill="#C6E3FF"/>
<rect x="179" y="156" width="28" height="44" fill="#0385FF"/>
<path d="M171.207 214.549C171.207 214.955 171.067 215.293 170.787 215.564C170.512 215.83 170.09 215.963 169.52 215.963H168.582V218H167.945V213.121H169.52C170.071 213.121 170.489 213.254 170.773 213.52C171.063 213.786 171.207 214.129 171.207 214.549ZM169.52 215.438C169.875 215.438 170.136 215.361 170.304 215.207C170.472 215.053 170.556 214.834 170.556 214.549C170.556 213.947 170.211 213.646 169.52 213.646H168.582V215.438H169.52ZM175.499 215.935C175.499 216.056 175.492 216.185 175.478 216.32H172.412C172.435 216.698 172.564 216.994 172.797 217.209C173.035 217.419 173.322 217.524 173.658 217.524C173.933 217.524 174.162 217.461 174.344 217.335C174.531 217.204 174.661 217.032 174.736 216.817H175.422C175.319 217.186 175.114 217.487 174.806 217.72C174.498 217.949 174.115 218.063 173.658 218.063C173.294 218.063 172.967 217.981 172.678 217.818C172.393 217.655 172.169 217.424 172.006 217.125C171.843 216.822 171.761 216.472 171.761 216.075C171.761 215.678 171.84 215.331 171.999 215.032C172.158 214.733 172.379 214.505 172.664 214.346C172.953 214.183 173.285 214.101 173.658 214.101C174.022 214.101 174.344 214.18 174.624 214.339C174.904 214.498 175.119 214.717 175.268 214.997C175.422 215.272 175.499 215.585 175.499 215.935ZM174.841 215.802C174.841 215.559 174.787 215.352 174.68 215.179C174.573 215.002 174.426 214.869 174.239 214.78C174.057 214.687 173.854 214.64 173.63 214.64C173.308 214.64 173.033 214.743 172.804 214.948C172.58 215.153 172.452 215.438 172.419 215.802H174.841ZM180.953 214.094C181.251 214.094 181.517 214.157 181.751 214.283C181.984 214.404 182.168 214.589 182.304 214.836C182.439 215.083 182.507 215.384 182.507 215.739V218H181.877V215.83C181.877 215.447 181.781 215.156 181.59 214.955C181.403 214.75 181.149 214.647 180.827 214.647C180.495 214.647 180.232 214.754 180.036 214.969C179.84 215.179 179.742 215.485 179.742 215.886V218H179.112V215.83C179.112 215.447 179.016 215.156 178.825 214.955C178.638 214.75 178.384 214.647 178.062 214.647C177.73 214.647 177.467 214.754 177.271 214.969C177.075 215.179 176.977 215.485 176.977 215.886V218H176.34V214.164H176.977V214.717C177.103 214.516 177.271 214.362 177.481 214.255C177.695 214.148 177.931 214.094 178.188 214.094C178.51 214.094 178.794 214.166 179.042 214.311C179.289 214.456 179.473 214.668 179.595 214.948C179.702 214.677 179.879 214.467 180.127 214.318C180.374 214.169 180.649 214.094 180.953 214.094ZM184.189 214.787C184.301 214.568 184.459 214.397 184.665 214.276C184.875 214.155 185.129 214.094 185.428 214.094V214.752H185.26C184.546 214.752 184.189 215.139 184.189 215.914V218H183.552V214.164H184.189V214.787ZM187.836 218.063C187.477 218.063 187.15 217.981 186.856 217.818C186.567 217.655 186.338 217.424 186.17 217.125C186.007 216.822 185.925 216.472 185.925 216.075C185.925 215.683 186.009 215.338 186.177 215.039C186.35 214.736 186.583 214.505 186.877 214.346C187.171 214.183 187.5 214.101 187.864 214.101C188.228 214.101 188.557 214.183 188.851 214.346C189.145 214.505 189.376 214.733 189.544 215.032C189.717 215.331 189.803 215.678 189.803 216.075C189.803 216.472 189.714 216.822 189.537 217.125C189.364 217.424 189.129 217.655 188.83 217.818C188.531 217.981 188.2 218.063 187.836 218.063ZM187.836 217.503C188.065 217.503 188.279 217.449 188.48 217.342C188.681 217.235 188.842 217.074 188.963 216.859C189.089 216.644 189.152 216.383 189.152 216.075C189.152 215.767 189.091 215.506 188.97 215.291C188.849 215.076 188.69 214.918 188.494 214.815C188.298 214.708 188.086 214.654 187.857 214.654C187.624 214.654 187.409 214.708 187.213 214.815C187.022 214.918 186.868 215.076 186.751 215.291C186.634 215.506 186.576 215.767 186.576 216.075C186.576 216.388 186.632 216.651 186.744 216.866C186.861 217.081 187.015 217.242 187.206 217.349C187.397 217.452 187.607 217.503 187.836 217.503ZM192.223 214.101C192.554 214.101 192.843 214.173 193.091 214.318C193.343 214.463 193.529 214.645 193.651 214.864V214.164H194.295V218.084C194.295 218.434 194.22 218.744 194.071 219.015C193.921 219.29 193.707 219.505 193.427 219.659C193.151 219.813 192.829 219.89 192.461 219.89C191.957 219.89 191.537 219.771 191.201 219.533C190.865 219.295 190.666 218.971 190.606 218.56H191.236C191.306 218.793 191.45 218.98 191.67 219.12C191.889 219.265 192.153 219.337 192.461 219.337C192.811 219.337 193.095 219.227 193.315 219.008C193.539 218.789 193.651 218.481 193.651 218.084V217.279C193.525 217.503 193.338 217.69 193.091 217.839C192.843 217.988 192.554 218.063 192.223 218.063C191.882 218.063 191.572 217.979 191.292 217.811C191.016 217.643 190.799 217.407 190.641 217.104C190.482 216.801 190.403 216.455 190.403 216.068C190.403 215.676 190.482 215.333 190.641 215.039C190.799 214.74 191.016 214.509 191.292 214.346C191.572 214.183 191.882 214.101 192.223 214.101ZM193.651 216.075C193.651 215.786 193.592 215.534 193.476 215.319C193.359 215.104 193.2 214.941 193 214.829C192.804 214.712 192.587 214.654 192.349 214.654C192.111 214.654 191.894 214.71 191.698 214.822C191.502 214.934 191.345 215.097 191.229 215.312C191.112 215.527 191.054 215.779 191.054 216.068C191.054 216.362 191.112 216.619 191.229 216.838C191.345 217.053 191.502 217.218 191.698 217.335C191.894 217.447 192.111 217.503 192.349 217.503C192.587 217.503 192.804 217.447 193 217.335C193.2 217.218 193.359 217.053 193.476 216.838C193.592 216.619 193.651 216.364 193.651 216.075ZM196.008 214.787C196.12 214.568 196.279 214.397 196.484 214.276C196.694 214.155 196.948 214.094 197.247 214.094V214.752H197.079C196.365 214.752 196.008 215.139 196.008 215.914V218H195.371V214.164H196.008V214.787ZM197.744 216.068C197.744 215.676 197.824 215.333 197.982 215.039C198.141 214.74 198.358 214.509 198.633 214.346C198.913 214.183 199.224 214.101 199.564 214.101C199.9 214.101 200.192 214.173 200.439 214.318C200.687 214.463 200.871 214.645 200.992 214.864V214.164H201.636V218H200.992V217.286C200.866 217.51 200.677 217.697 200.425 217.846C200.178 217.991 199.889 218.063 199.557 218.063C199.217 218.063 198.909 217.979 198.633 217.811C198.358 217.643 198.141 217.407 197.982 217.104C197.824 216.801 197.744 216.455 197.744 216.068ZM200.992 216.075C200.992 215.786 200.934 215.534 200.817 215.319C200.701 215.104 200.542 214.941 200.341 214.829C200.145 214.712 199.928 214.654 199.69 214.654C199.452 214.654 199.235 214.71 199.039 214.822C198.843 214.934 198.687 215.097 198.57 215.312C198.454 215.527 198.395 215.779 198.395 216.068C198.395 216.362 198.454 216.619 198.57 216.838C198.687 217.053 198.843 217.218 199.039 217.335C199.235 217.447 199.452 217.503 199.69 217.503C199.928 217.503 200.145 217.447 200.341 217.335C200.542 217.218 200.701 217.053 200.817 216.838C200.934 216.619 200.992 216.364 200.992 216.075ZM207.326 214.094C207.624 214.094 207.89 214.157 208.124 214.283C208.357 214.404 208.541 214.589 208.677 214.836C208.812 215.083 208.88 215.384 208.88 215.739V218H208.25V215.83C208.25 215.447 208.154 215.156 207.963 214.955C207.776 214.75 207.522 214.647 207.2 214.647C206.868 214.647 206.605 214.754 206.409 214.969C206.213 215.179 206.115 215.485 206.115 215.886V218H205.485V215.83C205.485 215.447 205.389 215.156 205.198 214.955C205.011 214.75 204.757 214.647 204.435 214.647C204.103 214.647 203.84 214.754 203.644 214.969C203.448 215.179 203.35 215.485 203.35 215.886V218H202.713V214.164H203.35V214.717C203.476 214.516 203.644 214.362 203.854 214.255C204.068 214.148 204.304 214.094 204.561 214.094C204.883 214.094 205.167 214.166 205.415 214.311C205.662 214.456 205.846 214.668 205.968 214.948C206.075 214.677 206.252 214.467 206.5 214.318C206.747 214.169 207.022 214.094 207.326 214.094ZM209.687 216.068C209.687 215.676 209.766 215.333 209.925 215.039C210.083 214.74 210.3 214.509 210.576 214.346C210.856 214.183 211.166 214.101 211.507 214.101C211.843 214.101 212.134 214.173 212.382 214.318C212.629 214.463 212.813 214.645 212.935 214.864V214.164H213.579V218H212.935V217.286C212.809 217.51 212.62 217.697 212.368 217.846C212.12 217.991 211.831 218.063 211.5 218.063C211.159 218.063 210.851 217.979 210.576 217.811C210.3 217.643 210.083 217.407 209.925 217.104C209.766 216.801 209.687 216.455 209.687 216.068ZM212.935 216.075C212.935 215.786 212.876 215.534 212.76 215.319C212.643 215.104 212.484 214.941 212.284 214.829C212.088 214.712 211.871 214.654 211.633 214.654C211.395 214.654 211.178 214.71 210.982 214.822C210.786 214.934 210.629 215.097 210.513 215.312C210.396 215.527 210.338 215.779 210.338 216.068C210.338 216.362 210.396 216.619 210.513 216.838C210.629 217.053 210.786 217.218 210.982 217.335C211.178 217.447 211.395 217.503 211.633 217.503C211.871 217.503 212.088 217.447 212.284 217.335C212.484 217.218 212.643 217.053 212.76 216.838C212.876 216.619 212.935 216.364 212.935 216.075ZM216.524 214.094C216.991 214.094 217.369 214.236 217.658 214.521C217.948 214.801 218.092 215.207 218.092 215.739V218H217.462V215.83C217.462 215.447 217.367 215.156 217.175 214.955C216.984 214.75 216.723 214.647 216.391 214.647C216.055 214.647 215.787 214.752 215.586 214.962C215.39 215.172 215.292 215.478 215.292 215.879V218H214.655V214.164H215.292V214.71C215.418 214.514 215.589 214.362 215.803 214.255C216.023 214.148 216.263 214.094 216.524 214.094ZM191.721 221.121L190.307 226H189.593L188.459 222.073L187.283 226L186.576 226.007L185.211 221.121H185.89L186.954 225.258L188.13 221.121H188.844L189.964 225.244L191.035 221.121H191.721ZM195.918 223.935C195.918 224.056 195.911 224.185 195.897 224.32H192.831C192.854 224.698 192.983 224.994 193.216 225.209C193.454 225.419 193.741 225.524 194.077 225.524C194.352 225.524 194.581 225.461 194.763 225.335C194.95 225.204 195.08 225.032 195.155 224.817H195.841C195.738 225.186 195.533 225.487 195.225 225.72C194.917 225.949 194.534 226.063 194.077 226.063C193.713 226.063 193.386 225.981 193.097 225.818C192.812 225.655 192.588 225.424 192.425 225.125C192.262 224.822 192.18 224.472 192.18 224.075C192.18 223.678 192.259 223.331 192.418 223.032C192.577 222.733 192.798 222.505 193.083 222.346C193.372 222.183 193.704 222.101 194.077 222.101C194.441 222.101 194.763 222.18 195.043 222.339C195.323 222.498 195.538 222.717 195.687 222.997C195.841 223.272 195.918 223.585 195.918 223.935ZM195.26 223.802C195.26 223.559 195.206 223.352 195.099 223.179C194.992 223.002 194.845 222.869 194.658 222.78C194.476 222.687 194.273 222.64 194.049 222.64C193.727 222.64 193.452 222.743 193.223 222.948C192.999 223.153 192.871 223.438 192.838 223.802H195.26ZM197.396 222.878C197.526 222.649 197.718 222.463 197.97 222.318C198.222 222.173 198.509 222.101 198.831 222.101C199.176 222.101 199.486 222.183 199.762 222.346C200.037 222.509 200.254 222.74 200.413 223.039C200.571 223.333 200.651 223.676 200.651 224.068C200.651 224.455 200.571 224.801 200.413 225.104C200.254 225.407 200.035 225.643 199.755 225.811C199.479 225.979 199.171 226.063 198.831 226.063C198.499 226.063 198.208 225.991 197.956 225.846C197.708 225.701 197.522 225.517 197.396 225.293V226H196.759V220.82H197.396V222.878ZM200 224.068C200 223.779 199.941 223.527 199.825 223.312C199.708 223.097 199.549 222.934 199.349 222.822C199.153 222.71 198.936 222.654 198.698 222.654C198.464 222.654 198.247 222.712 198.047 222.829C197.851 222.941 197.692 223.107 197.571 223.326C197.454 223.541 197.396 223.79 197.396 224.075C197.396 224.364 197.454 224.619 197.571 224.838C197.692 225.053 197.851 225.218 198.047 225.335C198.247 225.447 198.464 225.503 198.698 225.503C198.936 225.503 199.153 225.447 199.349 225.335C199.549 225.218 199.708 225.053 199.825 224.838C199.941 224.619 200 224.362 200 224.068Z" fill="#8BC6FF"/>
<rect x="247" y="72" width="27" height="56" fill="#C6E3FF"/>
<rect x="247" y="128" width="27" height="72" fill="#0385FF"/>
<path d="M241.606 213.121V218H240.969V213.121H241.606ZM244.56 214.094C245.027 214.094 245.405 214.236 245.694 214.521C245.984 214.801 246.128 215.207 246.128 215.739V218H245.498V215.83C245.498 215.447 245.403 215.156 245.211 214.955C245.02 214.75 244.759 214.647 244.427 214.647C244.091 214.647 243.823 214.752 243.622 214.962C243.426 215.172 243.328 215.478 243.328 215.879V218H242.691V214.164H243.328V214.71C243.454 214.514 243.625 214.362 243.839 214.255C244.059 214.148 244.299 214.094 244.56 214.094ZM248.73 214.689H247.925V218H247.288V214.689H246.791V214.164H247.288V213.891C247.288 213.462 247.398 213.149 247.617 212.953C247.841 212.752 248.198 212.652 248.688 212.652V213.184C248.408 213.184 248.21 213.24 248.093 213.352C247.981 213.459 247.925 213.639 247.925 213.891V214.164H248.73V214.689ZM251.146 218.063C250.786 218.063 250.46 217.981 250.166 217.818C249.876 217.655 249.648 217.424 249.48 217.125C249.316 216.822 249.235 216.472 249.235 216.075C249.235 215.683 249.319 215.338 249.487 215.039C249.659 214.736 249.893 214.505 250.187 214.346C250.481 214.183 250.81 214.101 251.174 214.101C251.538 214.101 251.867 214.183 252.161 214.346C252.455 214.505 252.686 214.733 252.854 215.032C253.026 215.331 253.113 215.678 253.113 216.075C253.113 216.472 253.024 216.822 252.847 217.125C252.674 217.424 252.438 217.655 252.14 217.818C251.841 217.981 251.51 218.063 251.146 218.063ZM251.146 217.503C251.374 217.503 251.589 217.449 251.79 217.342C251.99 217.235 252.151 217.074 252.273 216.859C252.399 216.644 252.462 216.383 252.462 216.075C252.462 215.767 252.401 215.506 252.28 215.291C252.158 215.076 252 214.918 251.804 214.815C251.608 214.708 251.395 214.654 251.167 214.654C250.933 214.654 250.719 214.708 250.523 214.815C250.331 214.918 250.177 215.076 250.061 215.291C249.944 215.506 249.886 215.767 249.886 216.075C249.886 216.388 249.942 216.651 250.054 216.866C250.17 217.081 250.324 217.242 250.516 217.349C250.707 217.452 250.917 217.503 251.146 217.503ZM254.587 214.787C254.699 214.568 254.858 214.397 255.063 214.276C255.273 214.155 255.527 214.094 255.826 214.094V214.752H255.658C254.944 214.752 254.587 215.139 254.587 215.914V218H253.95V214.164H254.587V214.787ZM261.174 214.094C261.473 214.094 261.739 214.157 261.972 214.283C262.206 214.404 262.39 214.589 262.525 214.836C262.661 215.083 262.728 215.384 262.728 215.739V218H262.098V215.83C262.098 215.447 262.003 215.156 261.811 214.955C261.625 214.75 261.37 214.647 261.048 214.647C260.717 214.647 260.453 214.754 260.257 214.969C260.061 215.179 259.963 215.485 259.963 215.886V218H259.333V215.83C259.333 215.447 259.238 215.156 259.046 214.955C258.86 214.75 258.605 214.647 258.283 214.647C257.952 214.647 257.688 214.754 257.492 214.969C257.296 215.179 257.198 215.485 257.198 215.886V218H256.561V214.164H257.198V214.717C257.324 214.516 257.492 214.362 257.702 214.255C257.917 214.148 258.153 214.094 258.409 214.094C258.731 214.094 259.016 214.166 259.263 214.311C259.511 214.456 259.695 214.668 259.816 214.948C259.924 214.677 260.101 214.467 260.348 214.318C260.596 214.169 260.871 214.094 261.174 214.094ZM263.535 216.068C263.535 215.676 263.615 215.333 263.773 215.039C263.932 214.74 264.149 214.509 264.424 214.346C264.704 214.183 265.015 214.101 265.355 214.101C265.691 214.101 265.983 214.173 266.23 214.318C266.478 214.463 266.662 214.645 266.783 214.864V214.164H267.427V218H266.783V217.286C266.657 217.51 266.468 217.697 266.216 217.846C265.969 217.991 265.68 218.063 265.348 218.063C265.008 218.063 264.7 217.979 264.424 217.811C264.149 217.643 263.932 217.407 263.773 217.104C263.615 216.801 263.535 216.455 263.535 216.068ZM266.783 216.075C266.783 215.786 266.725 215.534 266.608 215.319C266.492 215.104 266.333 214.941 266.132 214.829C265.936 214.712 265.719 214.654 265.481 214.654C265.243 214.654 265.026 214.71 264.83 214.822C264.634 214.934 264.478 215.097 264.361 215.312C264.245 215.527 264.186 215.779 264.186 216.068C264.186 216.362 264.245 216.619 264.361 216.838C264.478 217.053 264.634 217.218 264.83 217.335C265.026 217.447 265.243 217.503 265.481 217.503C265.719 217.503 265.936 217.447 266.132 217.335C266.333 217.218 266.492 217.053 266.608 216.838C266.725 216.619 266.783 216.364 266.783 216.075ZM269.281 214.689V216.95C269.281 217.137 269.321 217.27 269.4 217.349C269.479 217.424 269.617 217.461 269.813 217.461H270.282V218H269.708C269.353 218 269.087 217.918 268.91 217.755C268.733 217.592 268.644 217.323 268.644 216.95V214.689H268.147V214.164H268.644V213.198H269.281V214.164H270.282V214.689H269.281ZM271.383 213.541C271.261 213.541 271.159 213.499 271.075 213.415C270.991 213.331 270.949 213.228 270.949 213.107C270.949 212.986 270.991 212.883 271.075 212.799C271.159 212.715 271.261 212.673 271.383 212.673C271.499 212.673 271.597 212.715 271.677 212.799C271.761 212.883 271.803 212.986 271.803 213.107C271.803 213.228 271.761 213.331 271.677 213.415C271.597 213.499 271.499 213.541 271.383 213.541ZM271.691 214.164V218H271.054V214.164H271.691ZM274.918 218L273.413 216.306V218H272.776V212.82H273.413V215.865L274.89 214.164H275.779L273.973 216.075L275.786 218H274.918ZM276.141 216.068C276.141 215.676 276.22 215.333 276.379 215.039C276.538 214.74 276.755 214.509 277.03 214.346C277.31 214.183 277.62 214.101 277.961 214.101C278.297 214.101 278.589 214.173 278.836 214.318C279.083 214.463 279.268 214.645 279.389 214.864V214.164H280.033V218H279.389V217.286C279.263 217.51 279.074 217.697 278.822 217.846C278.575 217.991 278.285 218.063 277.954 218.063C277.613 218.063 277.305 217.979 277.03 217.811C276.755 217.643 276.538 217.407 276.379 217.104C276.22 216.801 276.141 216.455 276.141 216.068ZM279.389 216.075C279.389 215.786 279.331 215.534 279.214 215.319C279.097 215.104 278.939 214.941 278.738 214.829C278.542 214.712 278.325 214.654 278.087 214.654C277.849 214.654 277.632 214.71 277.436 214.822C277.24 214.934 277.084 215.097 276.967 215.312C276.85 215.527 276.792 215.779 276.792 216.068C276.792 216.362 276.85 216.619 276.967 216.838C277.084 217.053 277.24 217.218 277.436 217.335C277.632 217.447 277.849 217.503 278.087 217.503C278.325 217.503 278.542 217.447 278.738 217.335C278.939 217.218 279.097 217.053 279.214 216.838C279.331 216.619 279.389 216.364 279.389 216.075ZM251.746 221.121V224.208C251.746 224.642 251.851 224.964 252.061 225.174C252.276 225.384 252.572 225.489 252.95 225.489C253.324 225.489 253.615 225.384 253.825 225.174C254.04 224.964 254.147 224.642 254.147 224.208V221.121H254.784V224.201C254.784 224.607 254.703 224.95 254.539 225.23C254.376 225.505 254.154 225.711 253.874 225.846C253.599 225.981 253.289 226.049 252.943 226.049C252.598 226.049 252.285 225.981 252.005 225.846C251.73 225.711 251.511 225.505 251.347 225.23C251.189 224.95 251.109 224.607 251.109 224.201V221.121H251.746ZM257.716 222.094C258.183 222.094 258.561 222.236 258.85 222.521C259.139 222.801 259.284 223.207 259.284 223.739V226H258.654V223.83C258.654 223.447 258.558 223.156 258.367 222.955C258.176 222.75 257.914 222.647 257.583 222.647C257.247 222.647 256.979 222.752 256.778 222.962C256.582 223.172 256.484 223.478 256.484 223.879V226H255.847V222.164H256.484V222.71C256.61 222.514 256.78 222.362 256.995 222.255C257.214 222.148 257.455 222.094 257.716 222.094ZM261.102 222.689V224.95C261.102 225.137 261.141 225.27 261.221 225.349C261.3 225.424 261.438 225.461 261.634 225.461H262.103V226H261.529C261.174 226 260.908 225.918 260.731 225.755C260.553 225.592 260.465 225.323 260.465 224.95V222.689H259.968V222.164H260.465V221.198H261.102V222.164H262.103V222.689H261.102ZM266.276 222.164V226H265.639V225.433C265.518 225.629 265.348 225.783 265.128 225.895C264.914 226.002 264.676 226.056 264.414 226.056C264.116 226.056 263.847 225.995 263.609 225.874C263.371 225.748 263.182 225.561 263.042 225.314C262.907 225.067 262.839 224.766 262.839 224.411V222.164H263.469V224.327C263.469 224.705 263.565 224.997 263.756 225.202C263.948 225.403 264.209 225.503 264.54 225.503C264.881 225.503 265.149 225.398 265.345 225.188C265.541 224.978 265.639 224.672 265.639 224.271V222.164H266.276ZM269.494 226L267.989 224.306V226H267.352V220.82H267.989V223.865L269.466 222.164H270.355L268.549 224.075L270.362 226H269.494ZM245.33 229.156V234H244.693V230.388L243.083 234H242.635L241.018 230.381V234H240.381V229.156H241.067L242.859 233.16L244.651 229.156H245.33ZM246.172 232.068C246.172 231.676 246.251 231.333 246.41 231.039C246.569 230.74 246.786 230.509 247.061 230.346C247.341 230.183 247.651 230.101 247.992 230.101C248.328 230.101 248.62 230.173 248.867 230.318C249.114 230.463 249.299 230.645 249.42 230.864V230.164H250.064V234H249.42V233.286C249.294 233.51 249.105 233.697 248.853 233.846C248.606 233.991 248.316 234.063 247.985 234.063C247.644 234.063 247.336 233.979 247.061 233.811C246.786 233.643 246.569 233.407 246.41 233.104C246.251 232.801 246.172 232.455 246.172 232.068ZM249.42 232.075C249.42 231.786 249.362 231.534 249.245 231.319C249.128 231.104 248.97 230.941 248.769 230.829C248.573 230.712 248.356 230.654 248.118 230.654C247.88 230.654 247.663 230.71 247.467 230.822C247.271 230.934 247.115 231.097 246.998 231.312C246.881 231.527 246.823 231.779 246.823 232.068C246.823 232.362 246.881 232.619 246.998 232.838C247.115 233.053 247.271 233.218 247.467 233.335C247.663 233.447 247.88 233.503 248.118 233.503C248.356 233.503 248.573 233.447 248.769 233.335C248.97 233.218 249.128 233.053 249.245 232.838C249.362 232.619 249.42 232.364 249.42 232.075ZM252.499 234.063C252.205 234.063 251.941 234.014 251.708 233.916C251.474 233.813 251.29 233.673 251.155 233.496C251.019 233.314 250.945 233.106 250.931 232.873H251.589C251.607 233.064 251.696 233.221 251.855 233.342C252.018 233.463 252.23 233.524 252.492 233.524C252.734 233.524 252.926 233.47 253.066 233.363C253.206 233.256 253.276 233.12 253.276 232.957C253.276 232.789 253.201 232.665 253.052 232.586C252.902 232.502 252.671 232.42 252.359 232.341C252.074 232.266 251.841 232.192 251.659 232.117C251.481 232.038 251.327 231.923 251.197 231.774C251.071 231.62 251.008 231.419 251.008 231.172C251.008 230.976 251.066 230.796 251.183 230.633C251.299 230.47 251.465 230.341 251.68 230.248C251.894 230.15 252.139 230.101 252.415 230.101C252.839 230.101 253.182 230.208 253.444 230.423C253.705 230.638 253.845 230.932 253.864 231.305H253.227C253.213 231.104 253.131 230.943 252.982 230.822C252.837 230.701 252.641 230.64 252.394 230.64C252.165 230.64 251.983 230.689 251.848 230.787C251.712 230.885 251.645 231.013 251.645 231.172C251.645 231.298 251.684 231.403 251.764 231.487C251.848 231.566 251.95 231.632 252.072 231.683C252.198 231.73 252.37 231.783 252.59 231.844C252.865 231.919 253.089 231.993 253.262 232.068C253.434 232.138 253.581 232.245 253.703 232.39C253.829 232.535 253.894 232.724 253.899 232.957C253.899 233.167 253.84 233.356 253.724 233.524C253.607 233.692 253.441 233.825 253.227 233.923C253.017 234.016 252.774 234.063 252.499 234.063ZM258.102 230.164L255.792 235.806H255.134L255.89 233.958L254.343 230.164H255.05L256.254 233.272L257.444 230.164H258.102ZM258.504 232.068C258.504 231.676 258.583 231.333 258.742 231.039C258.901 230.74 259.118 230.509 259.393 230.346C259.673 230.183 259.983 230.101 260.324 230.101C260.66 230.101 260.952 230.173 261.199 230.318C261.446 230.463 261.631 230.645 261.752 230.864V230.164H262.396V234H261.752V233.286C261.626 233.51 261.437 233.697 261.185 233.846C260.938 233.991 260.648 234.063 260.317 234.063C259.976 234.063 259.668 233.979 259.393 233.811C259.118 233.643 258.901 233.407 258.742 233.104C258.583 232.801 258.504 232.455 258.504 232.068ZM261.752 232.075C261.752 231.786 261.694 231.534 261.577 231.319C261.46 231.104 261.302 230.941 261.101 230.829C260.905 230.712 260.688 230.654 260.45 230.654C260.212 230.654 259.995 230.71 259.799 230.822C259.603 230.934 259.447 231.097 259.33 231.312C259.213 231.527 259.155 231.779 259.155 232.068C259.155 232.362 259.213 232.619 259.33 232.838C259.447 233.053 259.603 233.218 259.799 233.335C259.995 233.447 260.212 233.503 260.45 233.503C260.688 233.503 260.905 233.447 261.101 233.335C261.302 233.218 261.46 233.053 261.577 232.838C261.694 232.619 261.752 232.364 261.752 232.075ZM264.11 230.787C264.222 230.568 264.38 230.397 264.586 230.276C264.796 230.155 265.05 230.094 265.349 230.094V230.752H265.181C264.467 230.752 264.11 231.139 264.11 231.914V234H263.473V230.164H264.11V230.787ZM265.846 232.068C265.846 231.676 265.925 231.333 266.084 231.039C266.243 230.74 266.46 230.509 266.735 230.346C267.015 230.183 267.325 230.101 267.666 230.101C268.002 230.101 268.294 230.173 268.541 230.318C268.788 230.463 268.973 230.645 269.094 230.864V230.164H269.738V234H269.094V233.286C268.968 233.51 268.779 233.697 268.527 233.846C268.28 233.991 267.99 234.063 267.659 234.063C267.318 234.063 267.01 233.979 266.735 233.811C266.46 233.643 266.243 233.407 266.084 233.104C265.925 232.801 265.846 232.455 265.846 232.068ZM269.094 232.075C269.094 231.786 269.036 231.534 268.919 231.319C268.802 231.104 268.644 230.941 268.443 230.829C268.247 230.712 268.03 230.654 267.792 230.654C267.554 230.654 267.337 230.71 267.141 230.822C266.945 230.934 266.789 231.097 266.672 231.312C266.555 231.527 266.497 231.779 266.497 232.068C266.497 232.362 266.555 232.619 266.672 232.838C266.789 233.053 266.945 233.218 267.141 233.335C267.337 233.447 267.554 233.503 267.792 233.503C268.03 233.503 268.247 233.447 268.443 233.335C268.644 233.218 268.802 233.053 268.919 232.838C269.036 232.619 269.094 232.364 269.094 232.075ZM272.956 234L271.451 232.306V234H270.814V228.82H271.451V231.865L272.928 230.164H273.817L272.011 232.075L273.824 234H272.956ZM274.179 232.068C274.179 231.676 274.258 231.333 274.417 231.039C274.576 230.74 274.793 230.509 275.068 230.346C275.348 230.183 275.658 230.101 275.999 230.101C276.335 230.101 276.627 230.173 276.874 230.318C277.121 230.463 277.306 230.645 277.427 230.864V230.164H278.071V234H277.427V233.286C277.301 233.51 277.112 233.697 276.86 233.846C276.613 233.991 276.323 234.063 275.992 234.063C275.651 234.063 275.343 233.979 275.068 233.811C274.793 233.643 274.576 233.407 274.417 233.104C274.258 232.801 274.179 232.455 274.179 232.068ZM277.427 232.075C277.427 231.786 277.369 231.534 277.252 231.319C277.135 231.104 276.977 230.941 276.776 230.829C276.58 230.712 276.363 230.654 276.125 230.654C275.887 230.654 275.67 230.71 275.474 230.822C275.278 230.934 275.122 231.097 275.005 231.312C274.888 231.527 274.83 231.779 274.83 232.068C274.83 232.362 274.888 232.619 275.005 232.838C275.122 233.053 275.278 233.218 275.474 233.335C275.67 233.447 275.887 233.503 276.125 233.503C276.363 233.503 276.58 233.447 276.776 233.335C276.977 233.218 277.135 233.053 277.252 232.838C277.369 232.619 277.427 232.364 277.427 232.075ZM279.924 230.689V232.95C279.924 233.137 279.964 233.27 280.043 233.349C280.123 233.424 280.26 233.461 280.456 233.461H280.925V234H280.351C279.997 234 279.731 233.918 279.553 233.755C279.376 233.592 279.287 233.323 279.287 232.95V230.689H278.79V230.164H279.287V229.198H279.924V230.164H280.925V230.689H279.924Z" fill="#8BC6FF"/>
<rect x="314" y="24" width="27" height="110" fill="#C6E3FF"/>
<rect x="314" y="134" width="27" height="66" fill="#0385FF"/>
<path d="M320.579 213.639V215.27H322.357V215.795H320.579V217.475H322.567V218H319.942V213.114H322.567V213.639H320.579ZM324.308 214.689V216.95C324.308 217.137 324.347 217.27 324.427 217.349C324.506 217.424 324.644 217.461 324.84 217.461H325.309V218H324.735C324.38 218 324.114 217.918 323.937 217.755C323.759 217.592 323.671 217.323 323.671 216.95V214.689H323.174V214.164H323.671V213.198H324.308V214.164H325.309V214.689H324.308ZM326.41 213.541C326.288 213.541 326.186 213.499 326.102 213.415C326.018 213.331 325.976 213.228 325.976 213.107C325.976 212.986 326.018 212.883 326.102 212.799C326.186 212.715 326.288 212.673 326.41 212.673C326.526 212.673 326.624 212.715 326.704 212.799C326.788 212.883 326.83 212.986 326.83 213.107C326.83 213.228 326.788 213.331 326.704 213.415C326.624 213.499 326.526 213.541 326.41 213.541ZM326.718 214.164V218H326.081V214.164H326.718ZM329.945 218L328.44 216.306V218H327.803V212.82H328.44V215.865L329.917 214.164H330.806L329 216.075L330.813 218H329.945ZM331.168 216.068C331.168 215.676 331.247 215.333 331.406 215.039C331.564 214.74 331.781 214.509 332.057 214.346C332.337 214.183 332.647 214.101 332.988 214.101C333.324 214.101 333.615 214.173 333.863 214.318C334.11 214.463 334.294 214.645 334.416 214.864V214.164H335.06V218H334.416V217.286C334.29 217.51 334.101 217.697 333.849 217.846C333.601 217.991 333.312 218.063 332.981 218.063C332.64 218.063 332.332 217.979 332.057 217.811C331.781 217.643 331.564 217.407 331.406 217.104C331.247 216.801 331.168 216.455 331.168 216.068ZM334.416 216.075C334.416 215.786 334.357 215.534 334.241 215.319C334.124 215.104 333.965 214.941 333.765 214.829C333.569 214.712 333.352 214.654 333.114 214.654C332.876 214.654 332.659 214.71 332.463 214.822C332.267 214.934 332.11 215.097 331.994 215.312C331.877 215.527 331.819 215.779 331.819 216.068C331.819 216.362 331.877 216.619 331.994 216.838C332.11 217.053 332.267 217.218 332.463 217.335C332.659 217.447 332.876 217.503 333.114 217.503C333.352 217.503 333.569 217.447 333.765 217.335C333.965 217.218 334.124 217.053 334.241 216.838C334.357 216.619 334.416 216.364 334.416 216.075ZM319.718 222.549C319.718 222.955 319.578 223.293 319.298 223.564C319.022 223.83 318.6 223.963 318.031 223.963H317.093V226H316.456V221.121H318.031C318.581 221.121 318.999 221.254 319.284 221.52C319.573 221.786 319.718 222.129 319.718 222.549ZM318.031 223.438C318.385 223.438 318.647 223.361 318.815 223.207C318.983 223.053 319.067 222.834 319.067 222.549C319.067 221.947 318.721 221.646 318.031 221.646H317.093V223.438H318.031ZM321.146 222.787C321.258 222.568 321.417 222.397 321.622 222.276C321.832 222.155 322.087 222.094 322.385 222.094V222.752H322.217C321.503 222.752 321.146 223.139 321.146 223.914V226H320.509V222.164H321.146V222.787ZM324.794 226.063C324.434 226.063 324.108 225.981 323.814 225.818C323.524 225.655 323.296 225.424 323.128 225.125C322.964 224.822 322.883 224.472 322.883 224.075C322.883 223.683 322.967 223.338 323.135 223.039C323.307 222.736 323.541 222.505 323.835 222.346C324.129 222.183 324.458 222.101 324.822 222.101C325.186 222.101 325.515 222.183 325.809 222.346C326.103 222.505 326.334 222.733 326.502 223.032C326.674 223.331 326.761 223.678 326.761 224.075C326.761 224.472 326.672 224.822 326.495 225.125C326.322 225.424 326.086 225.655 325.788 225.818C325.489 225.981 325.158 226.063 324.794 226.063ZM324.794 225.503C325.022 225.503 325.237 225.449 325.438 225.342C325.638 225.235 325.799 225.074 325.921 224.859C326.047 224.644 326.11 224.383 326.11 224.075C326.11 223.767 326.049 223.506 325.928 223.291C325.806 223.076 325.648 222.918 325.452 222.815C325.256 222.708 325.043 222.654 324.815 222.654C324.581 222.654 324.367 222.708 324.171 222.815C323.979 222.918 323.825 223.076 323.709 223.291C323.592 223.506 323.534 223.767 323.534 224.075C323.534 224.388 323.59 224.651 323.702 224.866C323.818 225.081 323.972 225.242 324.164 225.349C324.355 225.452 324.565 225.503 324.794 225.503ZM329.159 222.689H328.354V226H327.717V222.689H327.22V222.164H327.717V221.891C327.717 221.462 327.827 221.149 328.046 220.953C328.27 220.752 328.627 220.652 329.117 220.652V221.184C328.837 221.184 328.639 221.24 328.522 221.352C328.41 221.459 328.354 221.639 328.354 221.891V222.164H329.159V222.689ZM333.402 223.935C333.402 224.056 333.395 224.185 333.381 224.32H330.315C330.338 224.698 330.466 224.994 330.7 225.209C330.938 225.419 331.225 225.524 331.561 225.524C331.836 225.524 332.065 225.461 332.247 225.335C332.433 225.204 332.564 225.032 332.639 224.817H333.325C333.222 225.186 333.017 225.487 332.709 225.72C332.401 225.949 332.018 226.063 331.561 226.063C331.197 226.063 330.87 225.981 330.581 225.818C330.296 225.655 330.072 225.424 329.909 225.125C329.745 224.822 329.664 224.472 329.664 224.075C329.664 223.678 329.743 223.331 329.902 223.032C330.06 222.733 330.282 222.505 330.567 222.346C330.856 222.183 331.187 222.101 331.561 222.101C331.925 222.101 332.247 222.18 332.527 222.339C332.807 222.498 333.021 222.717 333.171 222.997C333.325 223.272 333.402 223.585 333.402 223.935ZM332.744 223.802C332.744 223.559 332.69 223.352 332.583 223.179C332.475 223.002 332.328 222.869 332.142 222.78C331.96 222.687 331.757 222.64 331.533 222.64C331.211 222.64 330.935 222.743 330.707 222.948C330.483 223.153 330.354 223.438 330.322 223.802H332.744ZM335.601 226.063C335.307 226.063 335.043 226.014 334.81 225.916C334.576 225.813 334.392 225.673 334.257 225.496C334.121 225.314 334.047 225.106 334.033 224.873H334.691C334.709 225.064 334.798 225.221 334.957 225.342C335.12 225.463 335.332 225.524 335.594 225.524C335.836 225.524 336.028 225.47 336.168 225.363C336.308 225.256 336.378 225.12 336.378 224.957C336.378 224.789 336.303 224.665 336.154 224.586C336.004 224.502 335.773 224.42 335.461 224.341C335.176 224.266 334.943 224.192 334.761 224.117C334.583 224.038 334.429 223.923 334.299 223.774C334.173 223.62 334.11 223.419 334.11 223.172C334.11 222.976 334.168 222.796 334.285 222.633C334.401 222.47 334.567 222.341 334.782 222.248C334.996 222.15 335.241 222.101 335.517 222.101C335.941 222.101 336.284 222.208 336.546 222.423C336.807 222.638 336.947 222.932 336.966 223.305H336.329C336.315 223.104 336.233 222.943 336.084 222.822C335.939 222.701 335.743 222.64 335.496 222.64C335.267 222.64 335.085 222.689 334.95 222.787C334.814 222.885 334.747 223.013 334.747 223.172C334.747 223.298 334.786 223.403 334.866 223.487C334.95 223.566 335.052 223.632 335.174 223.683C335.3 223.73 335.472 223.783 335.692 223.844C335.967 223.919 336.191 223.993 336.364 224.068C336.536 224.138 336.683 224.245 336.805 224.39C336.931 224.535 336.996 224.724 337.001 224.957C337.001 225.167 336.942 225.356 336.826 225.524C336.709 225.692 336.543 225.825 336.329 225.923C336.119 226.016 335.876 226.063 335.601 226.063ZM338.229 221.541C338.108 221.541 338.005 221.499 337.921 221.415C337.837 221.331 337.795 221.228 337.795 221.107C337.795 220.986 337.837 220.883 337.921 220.799C338.005 220.715 338.108 220.673 338.229 220.673C338.346 220.673 338.444 220.715 338.523 220.799C338.607 220.883 338.649 220.986 338.649 221.107C338.649 221.228 338.607 221.331 338.523 221.415C338.444 221.499 338.346 221.541 338.229 221.541ZM338.537 222.164V226H337.9V222.164H338.537Z" fill="#8BC6FF"/>
</svg>
