<svg width="18" height="18" viewBox="0 0 18 18" fill="none" xmlns="http://www.w3.org/2000/svg">
<path d="M8.41992 11.6719C9.01172 11.9062 9.55078 12.2168 10.0371 12.6035C10.5234 12.9902 10.9395 13.4385 11.2852 13.9482C11.6309 14.458 11.8975 15.0059 12.085 15.5918C12.2725 16.1777 12.3691 16.793 12.375 17.4375V18H11.25V17.4375C11.25 16.7402 11.1182 16.084 10.8545 15.4688C10.5908 14.8535 10.2275 14.3174 9.76465 13.8604C9.30176 13.4033 8.76562 13.043 8.15625 12.7793C7.54688 12.5156 6.89062 12.3809 6.1875 12.375C5.49023 12.375 4.83398 12.5068 4.21875 12.7705C3.60352 13.0342 3.06738 13.3975 2.61035 13.8604C2.15332 14.3232 1.79297 14.8594 1.5293 15.4688C1.26562 16.0781 1.13086 16.7344 1.125 17.4375V18H0V17.4375C0 16.7988 0.09375 16.1836 0.28125 15.5918C0.46875 15 0.738281 14.4521 1.08984 13.9482C1.44141 13.4443 1.85742 12.999 2.33789 12.6123C2.81836 12.2256 3.35742 11.9121 3.95508 11.6719C3.69141 11.4902 3.4541 11.2793 3.24316 11.0391C3.03223 10.7988 2.85352 10.541 2.70703 10.2656C2.56055 9.99023 2.44922 9.69727 2.37305 9.38672C2.29688 9.07617 2.25586 8.75977 2.25 8.4375C2.25 7.89258 2.35254 7.38281 2.55762 6.9082C2.7627 6.43359 3.04395 6.01758 3.40137 5.66016C3.75879 5.30273 4.1748 5.02148 4.64941 4.81641C5.12402 4.61133 5.63672 4.50586 6.1875 4.5C6.73242 4.5 7.24219 4.60254 7.7168 4.80762C8.19141 5.0127 8.60742 5.29395 8.96484 5.65137C9.32227 6.00879 9.60352 6.4248 9.80859 6.89941C10.0137 7.37402 10.1191 7.88672 10.125 8.4375C10.125 8.75977 10.0869 9.07324 10.0107 9.37793C9.93457 9.68262 9.82031 9.97559 9.66797 10.2568C9.51562 10.5381 9.33691 10.7988 9.13184 11.0391C8.92676 11.2793 8.68945 11.4902 8.41992 11.6719ZM6.1875 11.25C6.57422 11.25 6.9375 11.1768 7.27734 11.0303C7.61719 10.8838 7.91309 10.6846 8.16504 10.4326C8.41699 10.1807 8.61914 9.88184 8.77148 9.53613C8.92383 9.19043 9 8.82422 9 8.4375C9 8.05078 8.92676 7.6875 8.78027 7.34766C8.63379 7.00781 8.43164 6.71191 8.17383 6.45996C7.91602 6.20801 7.61719 6.00586 7.27734 5.85352C6.9375 5.70117 6.57422 5.625 6.1875 5.625C5.80078 5.625 5.4375 5.69824 5.09766 5.84473C4.75781 5.99121 4.45898 6.19336 4.20117 6.45117C3.94336 6.70898 3.74121 7.00781 3.59473 7.34766C3.44824 7.6875 3.375 8.05078 3.375 8.4375C3.375 8.82422 3.44824 9.1875 3.59473 9.52734C3.74121 9.86719 3.94043 10.166 4.19238 10.4238C4.44434 10.6816 4.74316 10.8838 5.08887 11.0303C5.43457 11.1768 5.80078 11.25 6.1875 11.25ZM18 0V9H15.75L12.375 12.375V9H11.25V7.875H13.5V9.65918L15.2842 7.875H16.875V1.125H5.625V3.14648C5.4375 3.16992 5.25 3.19922 5.0625 3.23438C4.875 3.26953 4.6875 3.32227 4.5 3.39258V0H18Z" fill="#686868"/>
</svg>
