<svg width="15" height="13" viewBox="0 0 15 13" fill="none" xmlns="http://www.w3.org/2000/svg">
<path d="M8.125 3.62804V1.55487H7.125C5.23938 1.55487 4.29657 1.55487 3.71079 2.14066C3.125 2.72644 3.125 3.66925 3.125 5.55487V6.88414C3.125 8.76976 3.125 9.71257 3.71079 10.2984C4.29657 10.8841 5.23938 10.8841 7.12499 10.8841H7.125H7.875C9.76062 10.8841 10.7034 10.8841 11.2892 10.2984C11.875 9.71257 11.875 8.76976 11.875 6.88414V4.66463H9.375C8.78575 4.66463 8.49112 4.66463 8.30806 4.51282C8.125 4.36102 8.125 4.11669 8.125 3.62804Z" fill="#D9D9D9"/>
<path d="M8.23223 1.55487H5.625C4.44649 1.55487 3.85723 1.55487 3.49112 1.85848C3.125 2.16209 3.125 2.65074 3.125 3.62804V8.81097C3.125 9.78827 3.125 10.2769 3.49112 10.5805C3.85723 10.8841 4.44649 10.8841 5.625 10.8841H9.375C10.5535 10.8841 11.1428 10.8841 11.5089 10.5805C11.875 10.2769 11.875 9.78827 11.875 8.81097V4.5757C11.875 4.36385 11.875 4.25792 11.8274 4.16268C11.7798 4.06743 11.6895 3.99253 11.5089 3.84273L9.11612 1.85848C8.93547 1.70868 8.84515 1.63378 8.73029 1.59432C8.61544 1.55487 8.4877 1.55487 8.23223 1.55487Z" stroke="#686868" stroke-width="1.2"/>
<path d="M5.625 6.73779L9.375 6.73779" stroke="#686868" stroke-width="1.2" stroke-linecap="round"/>
<path d="M5.625 8.81097L8.125 8.81097" stroke="#686868" stroke-width="1.2" stroke-linecap="round"/>
<path d="M8.125 1.55487V3.62804C8.125 4.11669 8.125 4.36102 8.30806 4.51282C8.49112 4.66463 8.78575 4.66463 9.375 4.66463H11.875" stroke="#686868" stroke-width="1.2"/>
</svg>
