<svg width="41" height="41" viewBox="0 0 41 41" fill="none" xmlns="http://www.w3.org/2000/svg">
<path d="M22.2084 11.9583V5.125H12.5417C10.6561 5.125 9.71332 5.125 9.12753 5.71079C8.54175 6.29657 8.54175 7.23938 8.54175 9.125V31.875C8.54175 33.7606 8.54175 34.7034 9.12753 35.2892C9.71332 35.875 10.6561 35.875 12.5417 35.875H28.4584C30.344 35.875 31.2868 35.875 31.8726 35.2892C32.4584 34.7034 32.4584 33.7606 32.4584 31.875V15.375H25.6251C24.0145 15.375 23.2091 15.375 22.7088 14.8746C22.2084 14.3743 22.2084 13.569 22.2084 11.9583Z" fill="#D9D9D9"/>
<path d="M22.5015 5.125H15.3751C12.1538 5.125 10.5432 5.125 9.54247 6.12572C8.54175 7.12644 8.54175 8.73707 8.54175 11.9583V29.0417C8.54175 32.2629 8.54175 33.8736 9.54247 34.8743C10.5432 35.875 12.1538 35.875 15.3751 35.875H25.6251C28.8463 35.875 30.457 35.875 31.4577 34.8743C32.4584 33.8736 32.4584 32.2629 32.4584 29.0417V15.0819C32.4584 14.3836 32.4584 14.0345 32.3284 13.7205C32.1983 13.4066 31.9515 13.1597 31.4577 12.6659L24.9175 6.12572C24.4237 5.63196 24.1768 5.38508 23.8629 5.25504C23.5489 5.125 23.1998 5.125 22.5015 5.125Z" stroke="#222222" stroke-width="1.2"/>
<path d="M15.375 22.2084L25.625 22.2084" stroke="#222222" stroke-width="1.2" stroke-linecap="round"/>
<path d="M15.375 29.0416L22.2083 29.0416" stroke="#222222" stroke-width="1.2" stroke-linecap="round"/>
<path d="M22.2083 5.125V11.9583C22.2083 13.569 22.2083 14.3743 22.7086 14.8746C23.209 15.375 24.0143 15.375 25.6249 15.375H32.4583" stroke="#222222" stroke-width="1.2"/>
</svg>
