<svg width="23" height="23" viewBox="0 0 23 23" fill="none" xmlns="http://www.w3.org/2000/svg">
<path d="M1.03903 22.9997C0.833536 22.9997 0.63265 22.9388 0.46178 22.8246C0.29091 22.7105 0.157733 22.5482 0.0790902 22.3584C0.000447699 22.1685 -0.0201269 21.9596 0.0199684 21.758C0.0600637 21.5565 0.159028 21.3714 0.304345 21.2261L8.96861 12.5619C9.06508 12.4654 9.17962 12.3889 9.30567 12.3366C9.43172 12.2844 9.56682 12.2576 9.70326 12.2576C9.8397 12.2576 9.9748 12.2844 10.1008 12.3367C10.2269 12.3889 10.3414 12.4654 10.4379 12.5619C10.5344 12.6584 10.6109 12.7729 10.6631 12.8989C10.7153 13.025 10.7422 13.1601 10.7422 13.2965C10.7422 13.433 10.7153 13.5681 10.6631 13.6941C10.6109 13.8202 10.5344 13.9347 10.4379 14.0312L1.77367 22.6954C1.67729 22.792 1.56277 22.8686 1.4367 22.9209C1.31063 22.9731 1.17549 22.9999 1.03903 22.9997Z" fill="#686868"/>
<path d="M13.2875 10.7513C13.082 10.7513 12.8811 10.6904 12.7103 10.5762C12.5394 10.462 12.4063 10.2998 12.3276 10.1099C12.249 9.92006 12.2284 9.71115 12.2685 9.50961C12.3086 9.30807 12.4076 9.12295 12.5529 8.97765L21.2262 0.304299C21.4211 0.109455 21.6854 -4.87732e-06 21.9609 1.62997e-10C22.2365 4.87764e-06 22.5007 0.109474 22.6956 0.304325C22.8904 0.499177 22.9999 0.763449 22.9999 1.03901C22.9999 1.31456 22.8904 1.57883 22.6956 1.77368L14.0222 10.447C13.9258 10.5436 13.8113 10.6202 13.6852 10.6724C13.5591 10.7247 13.424 10.7514 13.2875 10.7513Z" fill="#686868"/>
<path d="M19.3115 10.7513H13.2875C13.0119 10.7513 12.7477 10.6419 12.5528 10.447C12.358 10.2522 12.2485 9.98795 12.2485 9.7124V3.68836C12.2485 3.41281 12.358 3.14855 12.5528 2.95371C12.7477 2.75887 13.0119 2.64941 13.2875 2.64941C13.563 2.64941 13.8273 2.75887 14.0221 2.95371C14.217 3.14855 14.3264 3.41281 14.3264 3.68836V8.67346H19.3115C19.5871 8.67346 19.8513 8.78292 20.0462 8.97776C20.241 9.1726 20.3505 9.43686 20.3505 9.7124C20.3505 9.98795 20.241 10.2522 20.0462 10.447C19.8513 10.6419 19.5871 10.7513 19.3115 10.7513Z" fill="#686868"/>
<path d="M9.7124 20.3505C9.43686 20.3505 9.1726 20.241 8.97776 20.0462C8.78292 19.8513 8.67346 19.5871 8.67346 19.3115V14.3264H3.68836C3.41281 14.3264 3.14855 14.217 2.95371 14.0221C2.75887 13.8273 2.64941 13.563 2.64941 13.2875C2.64941 13.0119 2.75887 12.7477 2.95371 12.5528C3.14855 12.358 3.41281 12.2485 3.68836 12.2485H9.7124C9.98795 12.2485 10.2522 12.358 10.447 12.5528C10.6419 12.7477 10.7513 13.0119 10.7513 13.2875V19.3115C10.7513 19.5871 10.6419 19.8513 10.447 20.0462C10.2522 20.241 9.98795 20.3505 9.7124 20.3505Z" fill="#686868"/>
</svg>
