<svg width="18" height="18" viewBox="0 0 18 18" fill="none" xmlns="http://www.w3.org/2000/svg">
<path d="M0.963276 17.9999C0.772763 17.9999 0.586523 17.9434 0.428111 17.8376C0.2697 17.7318 0.146232 17.5813 0.0733237 17.4053C0.000415057 17.2293 -0.0186594 17.0356 0.0185125 16.8488C0.0556844 16.6619 0.147433 16.4903 0.282155 16.3556L16.3557 0.282113C16.4451 0.19267 16.5513 0.12172 16.6682 0.0733153C16.785 0.0249103 16.9103 -2.23423e-06 17.0368 1.50286e-10C17.1633 2.23454e-06 17.2885 0.0249194 17.4054 0.0733285C17.5223 0.121738 17.6284 0.192691 17.7179 0.282137C17.8073 0.371583 17.8783 0.47777 17.9267 0.594636C17.9751 0.711502 18 0.836758 18 0.963251C18 1.08975 17.9751 1.215 17.9267 1.33186C17.8783 1.44873 17.8073 1.55491 17.7179 1.64436L1.64435 17.7178C1.555 17.8074 1.44884 17.8784 1.33196 17.9268C1.21508 17.9752 1.08978 18.0001 0.963276 17.9999Z" fill="#686868"/>
<path d="M17.0368 7.51122C16.7813 7.51122 16.5363 7.40974 16.3557 7.2291C16.1751 7.04847 16.0736 6.80348 16.0736 6.54802V1.92639H11.452C11.1965 1.92639 10.9515 1.82491 10.7709 1.64427C10.5902 1.46364 10.4888 1.21865 10.4888 0.963193C10.4888 0.707738 10.5902 0.462746 10.7709 0.282113C10.9515 0.101479 11.1965 0 11.452 0H17.0368C17.2922 0 17.5372 0.101479 17.7179 0.282113C17.8985 0.462746 18 0.707738 18 0.963193V6.54802C18 6.80348 17.8985 7.04847 17.7179 7.2291C17.5372 7.40974 17.2922 7.51122 17.0368 7.51122Z" fill="#686868"/>
<path d="M6.54802 18H0.963193C0.707738 18 0.462746 17.8985 0.282113 17.7179C0.101479 17.5372 0 17.2922 0 17.0368V11.452C0 11.1965 0.101479 10.9515 0.282113 10.7709C0.462746 10.5902 0.707738 10.4888 0.963193 10.4888C1.21865 10.4888 1.46364 10.5902 1.64427 10.7709C1.82491 10.9515 1.92639 11.1965 1.92639 11.452V16.0736H6.54802C6.80348 16.0736 7.04847 16.1751 7.2291 16.3557C7.40974 16.5363 7.51122 16.7813 7.51122 17.0368C7.51122 17.2922 7.40974 17.5372 7.2291 17.7179C7.04847 17.8985 6.80348 18 6.54802 18Z" fill="#686868"/>
</svg>
