<svg width="17" height="17" viewBox="0 0 17 17" fill="none" xmlns="http://www.w3.org/2000/svg">
<g clip-path="url(#clip0_276_994)">
<path d="M7.79175 2.83329H2.83341C2.45769 2.83329 2.09736 2.98255 1.83168 3.24822C1.566 3.5139 1.41675 3.87423 1.41675 4.24996V14.1666C1.41675 14.5423 1.566 14.9027 1.83168 15.1684C2.09736 15.434 2.45769 15.5833 2.83341 15.5833H12.7501C13.1258 15.5833 13.4861 15.434 13.7518 15.1684C14.0175 14.9027 14.1667 14.5423 14.1667 14.1666V9.20829M13.1042 1.77079C13.386 1.489 13.7682 1.33069 14.1667 1.33069C14.5653 1.33069 14.9475 1.489 15.2292 1.77079C15.511 2.05258 15.6693 2.43478 15.6693 2.83329C15.6693 3.2318 15.511 3.614 15.2292 3.89579L8.50008 10.625L5.66675 11.3333L6.37508 8.49996L13.1042 1.77079Z" stroke="#0385FF" stroke-width="2" stroke-linecap="round" stroke-linejoin="round"/>
</g>
<defs>
<clipPath id="clip0_276_994">
<rect width="17" height="17" fill="white"/>
</clipPath>
</defs>
</svg>
